<svg version="1.1" xmlns="http://www.w3.org/2000/svg" xmlns:xlink="http://www.w3.org/1999/xlink" width="26" height="21"><defs/><g><path fill="rgb(138,152,160)" stroke="none" paint-order="stroke fill markers" fill-rule="evenodd" d=" M 22.79977035522461 19.949058532714844 C 22.79977035522461 19.949058532714844 3.199665069580078 19.949058532714844 3.199665069580078 19.949058532714844 C 2.4265213012695312 19.949058532714844 1.7997665405273438 19.32207489013672 1.7997665405273438 18.549026489257812 C 1.7997665405273438 18.549026489257812 1.7997665405273438 7.34930419921875 1.7997665405273438 7.34930419921875 C 1.7997665405273438 6.57598876953125 2.4265213012695312 6.123908996582031 3.199665069580078 5.948738098144531 C 3.199665069580078 5.948738098144531 4.404823303222656 5.638450622558594 6.210414886474609 5.31988525390625 C 6.210414886474609 5.31988525390625 7.399742126464844 2.0987167358398438 7.399742126464844 2.0987167358398438 C 7.749835968017578 1.4132537841796875 8.026592254638672 1.048492431640625 8.799736022949219 1.048492431640625 C 8.799736022949219 1.048492431640625 17.19979476928711 1.048492431640625 17.19979476928711 1.048492431640625 C 17.973033905029297 1.048492431640625 18.24969482421875 1.3254013061523438 18.599693298339844 2.0987167358398438 C 18.599693298339844 2.0987167358398438 19.773571014404297 5.278228759765625 19.773571014404297 5.278228759765625 C 21.612255096435547 5.6109466552734375 22.843544006347656 5.948738098144531 22.843544006347656 5.948738098144531 C 23.572914123535156 6.080116271972656 24.199764251708984 6.57598876953125 24.199764251708984 7.34930419921875 C 24.199764251708984 7.34930419921875 24.199764251708984 18.549026489257812 24.199764251708984 18.549026489257812 C 24.199764251708984 19.32207489013672 23.572914123535156 19.949058532714844 22.79977035522461 19.949058532714844 Z M 22.78937530517578 8.538650512695312 C 22.78937530517578 7.918342590332031 22.251693725585938 7.521270751953125 21.666805267333984 7.41552734375 C 21.666805267333984 7.41552734375 20.438758850097656 7.118858337402344 18.72443389892578 6.830467224121094 C 18.72443389892578 6.830467224121094 17.447750091552734 3.3729782104492188 17.447750091552734 3.3729782104492188 C 17.164318084716797 2.7465286254882812 16.940109252929688 2.5222244262695312 16.313926696777344 2.5222244262695312 C 16.313926696777344 2.5222244262695312 9.685604095458984 2.5222244262695312 9.685604095458984 2.5222244262695312 C 9.059326171875 2.5222244262695312 8.835212707519531 2.8175582885742188 8.551685333251953 3.3729782104492188 C 8.551685333251953 3.3729782104492188 7.266227722167969 6.8542327880859375 7.266227722167969 6.8542327880859375 C 5.549518585205078 7.134880065917969 4.332630157470703 7.41552734375 4.332630157470703 7.41552734375 C 3.7127418518066406 7.5565185546875 3.210155487060547 7.918342590332031 3.210155487060547 8.538650512695312 C 3.210155487060547 8.538650512695312 3.210155487060547 17.431243896484375 3.210155487060547 17.431243896484375 C 3.210155487060547 18.051284790039062 3.7127418518066406 18.5538330078125 4.332630157470703 18.5538330078125 C 4.332630157470703 18.5538330078125 21.666805267333984 18.5538330078125 21.666805267333984 18.5538330078125 C 22.286788940429688 18.5538330078125 22.78937530517578 18.051284790039062 22.78937530517578 17.431243896484375 C 22.78937530517578 17.431243896484375 22.78937530517578 8.538650512695312 22.78937530517578 8.538650512695312 Z M 12.999813079833984 17.211746215820312 C 9.892837524414062 17.211746215820312 7.374088287353516 14.619163513183594 7.374088287353516 11.511482238769531 C 7.374088287353516 8.405136108398438 9.892837524414062 5.886253356933594 12.999813079833984 5.886253356933594 C 16.106693267822266 5.886253356933594 18.625442504882812 8.405136108398438 18.625442504882812 11.511482238769531 C 18.625442504882812 14.619163513183594 16.106693267822266 17.211746215820312 12.999813079833984 17.211746215820312 Z M 12.999813079833984 6.873191833496094 C 10.43423843383789 6.873191833496094 8.35446548461914 8.952812194824219 8.35446548461914 11.518157958984375 C 8.35446548461914 14.084037780761719 10.43423843383789 16.22454071044922 12.999813079833984 16.22454071044922 C 15.565196990966797 16.22454071044922 17.645065307617188 14.084037780761719 17.645065307617188 11.518157958984375 C 17.645065307617188 8.952812194824219 15.565196990966797 6.873191833496094 12.999813079833984 6.873191833496094 Z"/></g></svg>