<svg version="1.1" xmlns="http://www.w3.org/2000/svg" xmlns:xlink="http://www.w3.org/1999/xlink" width="13" height="19"><defs/><g><path fill="#93a6b0" stroke="none" paint-order="stroke fill markers" fill-rule="evenodd" d=" M 9.272575378417969 5.554450988769531 C 9.272575378417969 5.554450988769531 11.999797821044922 5.554450988769531 11.999797821044922 5.554450988769531 C 11.999797821044922 5.554450988769531 11.999797821044922 1.99896240234375 11.999797821044922 1.99896240234375 C 11.999797821044922 1.99896240234375 8.942222595214844 1.99896240234375 8.942222595214844 1.99896240234375 C 6.545352935791016 1.99896240234375 4.727077484130859 3.7765731811523438 4.727077484130859 5.554450988769531 C 4.727077484130859 5.554450988769531 4.727077484130859 7.332061767578125 4.727077484130859 7.332061767578125 C 4.727077484130859 7.332061767578125 1.9998550415039062 7.332061767578125 1.9998550415039062 7.332061767578125 C 1.9998550415039062 7.332061767578125 1.9998550415039062 10.887283325195312 1.9998550415039062 10.887283325195312 C 1.9998550415039062 10.887283325195312 4.727077484130859 10.887283325195312 4.727077484130859 10.887283325195312 C 4.727077484130859 10.887283325195312 4.727077484130859 17.99852752685547 4.727077484130859 17.99852752685547 C 4.727077484130859 17.99852752685547 8.36343765258789 17.99852752685547 8.36343765258789 17.99852752685547 C 8.36343765258789 17.99852752685547 8.36343765258789 10.887283325195312 8.36343765258789 10.887283325195312 C 8.36343765258789 10.887283325195312 11.090660095214844 10.887283325195312 11.090660095214844 10.887283325195312 C 11.090660095214844 10.887283325195312 11.090660095214844 7.332061767578125 11.090660095214844 7.332061767578125 C 11.090660095214844 7.332061767578125 8.36343765258789 7.332061767578125 8.36343765258789 7.332061767578125 C 8.36343765258789 7.332061767578125 8.36343765258789 6.443122863769531 8.36343765258789 6.443122863769531 C 8.36343765258789 5.8895721435546875 8.961868286132812 5.554450988769531 9.272575378417969 5.554450988769531 C 9.583187103271484 5.554450988769531 9.272575378417969 5.554450988769531 9.272575378417969 5.554450988769531"/></g></svg>