<svg version="1.1" xmlns="http://www.w3.org/2000/svg" xmlns:xlink="http://www.w3.org/1999/xlink" width="19" height="17"><defs/><g><path fill="#93a6b0" stroke="none" paint-order="stroke fill markers" fill-rule="evenodd" d=" M 15.155582427978516 6.38653564453125 C 15.155582427978516 6.38653564453125 15.155582427978516 8.580177307128906 15.155582427978516 8.580177307128906 C 15.155582427978516 8.580177307128906 14.444427490234375 8.580177307128906 14.444427490234375 8.580177307128906 C 14.444427490234375 8.580177307128906 14.444427490234375 6.38653564453125 14.444427490234375 6.38653564453125 C 14.444427490234375 6.38653564453125 12.311058044433594 6.38653564453125 12.311058044433594 6.38653564453125 C 12.311058044433594 6.38653564453125 12.311058044433594 5.654876708984375 12.311058044433594 5.654876708984375 C 12.311058044433594 5.654876708984375 14.444427490234375 5.654876708984375 14.444427490234375 5.654876708984375 C 14.444427490234375 5.654876708984375 14.444427490234375 1.99871826171875 14.444427490234375 1.99871826171875 C 14.444427490234375 1.99871826171875 15.155582427978516 1.99871826171875 15.155582427978516 1.99871826171875 C 15.155582427978516 1.99871826171875 15.155582427978516 5.654876708984375 15.155582427978516 5.654876708984375 C 15.155582427978516 5.654876708984375 17.999916076660156 5.654876708984375 17.999916076660156 5.654876708984375 C 17.999916076660156 5.654876708984375 17.999916076660156 6.38653564453125 17.999916076660156 6.38653564453125 C 17.999916076660156 6.38653564453125 15.155582427978516 6.38653564453125 15.155582427978516 6.38653564453125 Z M 8.353214263916016 2.7301101684570312 C 9.217815399169922 3.4612350463867188 9.677963256835938 4.2604522705078125 9.677963256835938 5.3242950439453125 C 9.677963256835938 6.2172393798828125 9.196929931640625 7.13848876953125 8.51715087890625 7.6848297119140625 C 7.853965759277344 8.216751098632812 7.728557586669922 8.440521240234375 7.728557586669922 8.893669128417969 C 7.728557586669922 9.280860900878906 8.438949584960938 9.938018798828125 8.81021499633789 10.208518981933594 C 9.896259307861328 10.998123168945312 10.247306823730469 11.730316162109375 10.247306823730469 12.954109191894531 C 10.247306823730469 14.480445861816406 8.81021499633789 15.998771667480469 6.2081146240234375 15.998771667480469 C 3.9255905151367188 15.998771667480469 1.9998359680175781 15.042274475097656 1.9998359680175781 13.516471862792969 C 1.9998359680175781 11.965835571289062 3.7567901611328125 10.468338012695312 6.039028167724609 10.468338012695312 C 6.288032531738281 10.468338012695312 6.515483856201172 10.456321716308594 6.751422882080078 10.456321716308594 C 6.438999176025391 10.143363952636719 6.191806793212891 9.750297546386719 6.191806793212891 9.277389526367188 C 6.191806793212891 8.997276306152344 6.279354095458984 8.705413818359375 6.400852203369141 8.465354919433594 C 6.276969909667969 8.474700927734375 6.1501312255859375 8.433578491210938 6.019859313964844 8.433578491210938 C 4.144935607910156 8.433578491210938 2.8891372680664062 6.9734649658203125 2.8891372680664062 5.273826599121094 C 2.8891372680664062 3.6113052368164062 4.62310791015625 1.99871826171875 6.465702056884766 1.99871826171875 C 7.493572235107422 1.99871826171875 10.576133728027344 1.99871826171875 10.576133728027344 1.99871826171875 C 10.576133728027344 1.99871826171875 9.655933380126953 2.7301101684570312 9.655933380126953 2.7301101684570312 C 9.655933380126953 2.7301101684570312 8.353214263916016 2.7301101684570312 8.353214263916016 2.7301101684570312 Z M 6.473808288574219 10.867012023925781 C 4.895954132080078 10.84912109375 3.4828948974609375 11.85528564453125 3.4828948974609375 13.064926147460938 C 3.4828948974609375 14.29913330078125 4.622058868408203 15.325325012207031 6.199817657470703 15.325325012207031 C 8.417491912841797 15.325325012207031 9.190731048583984 14.361351013183594 9.190731048583984 13.12847900390625 C 9.190731048583984 12.979209899902344 9.172992706298828 12.83367919921875 9.140377044677734 12.691619873046875 C 8.96718978881836 11.993873596191406 8.352928161621094 11.647537231445312 7.496337890625 11.035507202148438 C 7.184867858886719 10.931632995605469 6.841831207275391 10.8704833984375 6.473808288574219 10.867012023925781 Z M 8.200435638427734 5.560882568359375 C 8.017807006835938 4.1301422119140625 7.010917663574219 2.9827194213867188 5.952243804931641 2.9498748779296875 C 4.893283843994141 2.9178314208984375 4.183845520019531 4.012115478515625 4.366474151611328 5.44232177734375 C 4.549102783203125 6.872795104980469 5.555324554443359 8.058135986328125 6.6147613525390625 8.090446472167969 C 7.6729583740234375 8.123023986816406 8.383159637451172 6.9905548095703125 8.200435638427734 5.560882568359375 Z"/></g></svg>