<svg version="1.1" xmlns="http://www.w3.org/2000/svg" xmlns:xlink="http://www.w3.org/1999/xlink" width="26" height="23"><defs/><g><path fill="rgb(236,112,100)" stroke="none" paint-order="stroke fill markers" fill-rule="evenodd" d=" M 22.435813903808594 12.684837341308594 C 22.435813903808594 12.684837341308594 13.968711853027344 21.15178680419922 13.968711853027344 21.15178680419922 C 13.42197036743164 21.69866180419922 12.535530090332031 21.69866180419922 11.988788604736328 21.15178680419922 C 11.988788604736328 21.15178680419922 4.157501220703125 13.320632934570312 4.157501220703125 13.320632934570312 C 4.157501220703125 13.320632934570312 4.164558410644531 13.313690185546875 4.164558410644531 13.313690185546875 C 4.164558410644531 13.313690185546875 3.5531578063964844 12.702728271484375 3.5531578063964844 12.702728271484375 C 1.1170921325683594 10.266090393066406 1.1170921325683594 6.31646728515625 3.5531578063964844 3.8803634643554688 C 5.98931884765625 1.4445266723632812 9.939056396484375 1.4445266723632812 12.375312805175781 3.8803634643554688 C 12.375312805175781 3.8803634643554688 12.986522674560547 4.491859436035156 12.986522674560547 4.491859436035156 C 12.986522674560547 4.491859436035156 13.597827911376953 3.8803634643554688 13.597827911376953 3.8803634643554688 C 16.03398895263672 1.4445266723632812 19.983821868896484 1.4445266723632812 22.41988754272461 3.8803634643554688 C 24.850326538085938 6.310859680175781 24.854999542236328 10.24713134765625 22.435813903808594 12.684837341308594 Z M 21.28940200805664 5.0373992919921875 C 19.445281982421875 3.1935653686523438 16.45522689819336 3.1935653686523438 14.610916137695312 5.0373992919921875 C 14.610916137695312 5.0373992919921875 12.994438171386719 6.645713806152344 12.994438171386719 6.645713806152344 C 12.994438171386719 6.645713806152344 11.386543273925781 5.033393859863281 11.386543273925781 5.033393859863281 C 9.542137145996094 3.18902587890625 6.551700592041016 3.18902587890625 4.7071990966796875 5.033393859863281 C 2.86279296875 6.878028869628906 2.86279296875 9.868217468261719 4.7071990966796875 11.71258544921875 C 4.7071990966796875 11.71258544921875 6.303745269775391 13.301139831542969 6.303745269775391 13.301139831542969 C 6.303745269775391 13.301139831542969 6.2994537353515625 13.305145263671875 6.2994537353515625 13.305145263671875 C 6.2994537353515625 13.305145263671875 13.021713256835938 19.983535766601562 13.021713256835938 19.983535766601562 C 13.021713256835938 19.983535766601562 15.211349487304688 17.794166564941406 15.211349487304688 17.794166564941406 C 15.211349487304688 17.794166564941406 19.675689697265625 13.34466552734375 19.675689697265625 13.34466552734375 C 19.675689697265625 13.34466552734375 19.668251037597656 13.337188720703125 19.668251037597656 13.337188720703125 C 19.668251037597656 13.337188720703125 21.28940200805664 11.716056823730469 21.28940200805664 11.716056823730469 C 23.133712768554688 9.871688842773438 23.133712768554688 6.881500244140625 21.28940200805664 5.0373992919921875 Z M 20.061927795410156 8.895965576171875 C 20.218425750732422 8.182464599609375 20.023876190185547 7.407279968261719 19.46893310546875 6.8526611328125 C 18.89968490600586 6.283355712890625 18.099361419677734 6.096435546875 17.37065887451172 6.276145935058594 C 17.37065887451172 6.276145935058594 17.37065887451172 5.401359558105469 17.37065887451172 5.401359558105469 C 18.311744689941406 5.217643737792969 19.324451446533203 5.48974609375 20.05353546142578 6.219001770019531 C 20.78118896484375 6.9461212158203125 21.054035186767578 7.9565582275390625 20.872455596923828 8.895965576171875 C 20.872455596923828 8.895965576171875 20.061927795410156 8.895965576171875 20.061927795410156 8.895965576171875 Z"/></g></svg>