<svg version="1.1" xmlns="http://www.w3.org/2000/svg" xmlns:xlink="http://www.w3.org/1999/xlink" width="26" height="23"><defs/><g><path fill="rgb(68,91,104)" stroke="none" paint-order="stroke fill markers" fill-rule="evenodd" d=" M 22.43584442138672 12.684837341308594 C 22.43584442138672 12.684837341308594 13.968742370605469 21.15178680419922 13.968742370605469 21.15178680419922 C 13.422000885009766 21.69866180419922 12.535560607910156 21.69866180419922 11.988819122314453 21.15178680419922 C 11.988819122314453 21.15178680419922 4.15753173828125 13.320632934570312 4.15753173828125 13.320632934570312 C 4.15753173828125 13.320632934570312 4.164588928222656 13.313690185546875 4.164588928222656 13.313690185546875 C 4.164588928222656 13.313690185546875 3.5531883239746094 12.702728271484375 3.5531883239746094 12.702728271484375 C 1.1171226501464844 10.266090393066406 1.1171226501464844 6.31646728515625 3.5531883239746094 3.8803634643554688 C 5.989349365234375 1.4445266723632812 9.9390869140625 1.4445266723632812 12.375343322753906 3.8803634643554688 C 12.375343322753906 3.8803634643554688 12.986553192138672 4.491859436035156 12.986553192138672 4.491859436035156 C 12.986553192138672 4.491859436035156 13.597858428955078 3.8803634643554688 13.597858428955078 3.8803634643554688 C 16.034019470214844 1.4445266723632812 19.98385238647461 1.4445266723632812 22.419918060302734 3.8803634643554688 C 24.850357055664062 6.310859680175781 24.855030059814453 10.24713134765625 22.43584442138672 12.684837341308594 Z M 21.289432525634766 5.0373992919921875 C 19.4453125 3.1935653686523438 16.455257415771484 3.1935653686523438 14.610946655273438 5.0373992919921875 C 14.610946655273438 5.0373992919921875 12.994468688964844 6.645713806152344 12.994468688964844 6.645713806152344 C 12.994468688964844 6.645713806152344 11.386573791503906 5.033393859863281 11.386573791503906 5.033393859863281 C 9.542167663574219 3.18902587890625 6.551731109619141 3.18902587890625 4.7072296142578125 5.033393859863281 C 2.862823486328125 6.878028869628906 2.862823486328125 9.868217468261719 4.7072296142578125 11.71258544921875 C 4.7072296142578125 11.71258544921875 6.303775787353516 13.301139831542969 6.303775787353516 13.301139831542969 C 6.303775787353516 13.301139831542969 6.2994842529296875 13.305145263671875 6.2994842529296875 13.305145263671875 C 6.2994842529296875 13.305145263671875 13.021743774414062 19.983535766601562 13.021743774414062 19.983535766601562 C 13.021743774414062 19.983535766601562 15.211380004882812 17.794166564941406 15.211380004882812 17.794166564941406 C 15.211380004882812 17.794166564941406 19.67572021484375 13.34466552734375 19.67572021484375 13.34466552734375 C 19.67572021484375 13.34466552734375 19.66828155517578 13.337188720703125 19.66828155517578 13.337188720703125 C 19.66828155517578 13.337188720703125 21.289432525634766 11.716056823730469 21.289432525634766 11.716056823730469 C 23.133743286132812 9.871688842773438 23.133743286132812 6.881500244140625 21.289432525634766 5.0373992919921875 Z M 20.06195831298828 8.895965576171875 C 20.218456268310547 8.182464599609375 20.023906707763672 7.407279968261719 19.468963623046875 6.8526611328125 C 18.899715423583984 6.283355712890625 18.09939193725586 6.096435546875 17.370689392089844 6.276145935058594 C 17.370689392089844 6.276145935058594 17.370689392089844 5.401359558105469 17.370689392089844 5.401359558105469 C 18.31177520751953 5.217643737792969 19.324481964111328 5.48974609375 20.053565979003906 6.219001770019531 C 20.781219482421875 6.9461212158203125 21.054065704345703 7.9565582275390625 20.872486114501953 8.895965576171875 C 20.872486114501953 8.895965576171875 20.06195831298828 8.895965576171875 20.06195831298828 8.895965576171875 Z"/></g></svg>