<svg version="1.1" xmlns="http://www.w3.org/2000/svg" xmlns:xlink="http://www.w3.org/1999/xlink" width="20" height="20"><defs/><g><path fill="rgb(255,255,255)" stroke="none" paint-order="stroke fill markers" fill-rule="evenodd" d=" M 17.863964080810547 11.490043640136719 C 17.857860565185547 11.51861572265625 17.852519989013672 11.548255920410156 17.846702575683594 11.576026916503906 C 17.80350112915039 11.789382934570312 17.752193450927734 12.00140380859375 17.6920166015625 12.210487365722656 C 17.682193756103516 12.243331909179688 17.674182891845703 12.275375366210938 17.664264678955078 12.308219909667969 C 17.598079681396484 12.527183532714844 17.52550506591797 12.744544982910156 17.44024658203125 12.958969116210938 C 17.438339233398438 12.96484375 17.433570861816406 12.969650268554688 17.43109130859375 12.975791931152344 C 17.04046630859375 13.952583312988281 16.450904846191406 14.869026184082031 15.6595458984375 15.659698486328125 C 14.84329605102539 16.476539611816406 13.893150329589844 17.073883056640625 12.881492614746094 17.46454620361328 C 12.875865936279297 17.468017578125 12.87166976928711 17.47148895263672 12.866233825683594 17.47442626953125 C 12.7115478515625 17.53290557861328 12.554191589355469 17.58470916748047 12.397407531738281 17.634109497070312 C 12.275146484375 17.67229461669922 12.152503967285156 17.704071044921875 12.02938461303711 17.73638153076172 C 11.91494369506836 17.76628875732422 11.80050277709961 17.79619598388672 11.68472671508789 17.820762634277344 C 11.566089630126953 17.846397399902344 11.4481201171875 17.867225646972656 11.329769134521484 17.887786865234375 C 11.230682373046875 17.904342651367188 11.131214141845703 17.91742706298828 11.032604217529297 17.931045532226562 C 10.907005310058594 17.946533203125 10.781978607177734 17.963890075683594 10.656475067138672 17.974571228027344 C 10.60898208618164 17.978042602539062 10.56167984008789 17.978042602539062 10.514568328857422 17.981246948242188 C 10.236381530761719 17.99860382080078 9.958003997802734 18.0020751953125 9.67953109741211 17.990859985351562 C 9.601043701171875 17.988189697265625 9.521984100341797 17.985252380371094 9.44301986694336 17.978843688964844 C 9.302543640136719 17.969497680664062 9.162639617919922 17.956680297851562 9.022640228271484 17.939590454101562 C 8.95321273803711 17.931045532226562 8.883499145507812 17.919830322265625 8.813594818115234 17.909149169921875 C 8.334754943847656 17.837852478027344 7.8623046875 17.72356414794922 7.4003448486328125 17.56494903564453 C 7.34503173828125 17.545989990234375 7.289813995361328 17.52783203125 7.234596252441406 17.507537841796875 C 7.085536956787109 17.451995849609375 6.9380035400390625 17.393783569335938 6.791233062744141 17.32996368408203 C 6.758045196533203 17.316078186035156 6.725334167480469 17.29925537109375 6.692146301269531 17.2843017578125 C 6.208442687988281 17.065338134765625 5.743431091308594 16.795372009277344 5.302547454833984 16.474136352539062 C 5.273746490478516 16.453842163085938 5.245326995849609 16.43274688720703 5.216907501220703 16.412452697753906 C 4.910301208496094 16.183609008789062 4.612087249755859 15.938743591308594 4.333805084228516 15.659698486328125 C 2.3860206604003906 13.713058471679688 1.6608467102050781 11.01446533203125 2.1412124633789062 8.498786926269531 C 2.146839141845703 8.472618103027344 2.1522750854492188 8.446449279785156 2.1577110290527344 8.419212341308594 C 2.2006263732910156 8.204521179199219 2.252410888671875 7.992767333984375 2.3127784729003906 7.781280517578125 C 2.3227920532226562 7.749237060546875 2.3306121826171875 7.7166595458984375 2.340435028076172 7.683815002441406 C 2.406810760498047 7.4645843505859375 2.4793853759765625 7.247489929199219 2.5645484924316406 7.033866882324219 C 2.5669326782226562 7.028526306152344 2.570556640625 7.023719787597656 2.573131561279297 7.017578125 C 2.963947296142578 6.039985656738281 3.5538902282714844 5.1232757568359375 4.345344543457031 4.33233642578125 C 5.161785125732422 3.5149612426757812 6.112884521484375 2.9173507690429688 7.125209808349609 2.5272216796875 C 7.129787445068359 2.52508544921875 7.133983612060547 2.52081298828125 7.138561248779297 2.5189437866210938 C 7.273887634277344 2.4668731689453125 7.411216735839844 2.4230804443359375 7.548736572265625 2.3792877197265625 C 7.697414398193359 2.3304214477539062 7.8466644287109375 2.2892990112304688 7.997631072998047 2.2497787475585938 C 8.102630615234375 2.222808837890625 8.20724868774414 2.1963729858398438 8.31234359741211 2.1734085083007812 C 8.436416625976562 2.1467056274414062 8.559917449951172 2.1240081787109375 8.684944152832031 2.1037139892578125 C 8.775066375732422 2.0876922607421875 8.86623764038086 2.0759429931640625 8.957218170166016 2.06365966796875 C 9.417652130126953 2.0033111572265625 9.881519317626953 1.9827499389648438 10.34481430053711 2.001708984375 C 10.413860321044922 2.0057144165039062 10.48223876953125 2.007049560546875 10.55080795288086 2.0118560791015625 C 10.698722839355469 2.0222702026367188 10.846065521240234 2.035888671875 10.99331283569336 2.0543136596679688 C 11.050533294677734 2.0617904663085938 11.107563018798828 2.0706024169921875 11.16440200805664 2.07861328125 C 11.660884857177734 2.1512451171875 12.149261474609375 2.2695388793945312 12.62752914428711 2.43536376953125 C 12.67025375366211 2.449249267578125 12.712882995605469 2.4639358520507812 12.754558563232422 2.4796905517578125 C 12.91286849975586 2.536834716796875 13.069366455078125 2.5990524291992188 13.2242431640625 2.667144775390625 C 13.242839813232422 2.67462158203125 13.260578155517578 2.6839675903320312 13.27907943725586 2.6914443969726562 C 13.780330657958984 2.916015625 14.261363983154297 3.1950607299804688 14.717124938964844 3.5277786254882812 C 14.737056732177734 3.5424652099609375 14.75632095336914 3.5566177368164062 14.775489807128906 3.5710372924804688 C 15.086101531982422 3.8028182983398438 15.388988494873047 4.0498199462890625 15.670894622802734 4.33233642578125 C 17.618106842041016 6.2789764404296875 18.34337615966797 8.975967407226562 17.863964080810547 11.490043640136719 Z M 15.798591613769531 9.484390258789062 C 15.791629791259766 9.403480529785156 15.778755187988281 9.321769714355469 15.768455505371094 9.241127014160156 C 15.735076904296875 8.986114501953125 15.685962677001953 8.734039306640625 15.619110107421875 8.484367370605469 C 15.600990295410156 8.415740966796875 15.583442687988281 8.345779418945312 15.562366485595703 8.277420043945312 C 15.517066955566406 8.130821228027344 15.466712951660156 7.9847564697265625 15.409587860107422 7.8416290283203125 C 15.387176513671875 7.7860870361328125 15.361331939697266 7.730812072753906 15.337299346923828 7.675804138183594 C 15.226005554199219 7.419456481933594 15.09487533569336 7.170318603515625 14.945148468017578 6.929191589355469 C 14.906524658203125 6.8664398193359375 14.86923599243164 6.803153991699219 14.827560424804688 6.742271423339844 C 14.74249267578125 6.6165008544921875 14.651798248291016 6.492866516113281 14.555763244628906 6.3719024658203125 C 14.499019622802734 6.301673889160156 14.437698364257812 6.232780456542969 14.37771224975586 6.164955139160156 C 14.292549133300781 6.0674896240234375 14.209674835205078 5.9692230224609375 14.11678695678711 5.8768310546875 C 13.499473571777344 5.25946044921875 12.778209686279297 4.810050964355469 12.009452819824219 4.5283355712890625 C 11.998771667480469 4.524864196777344 11.988567352294922 4.521125793457031 11.97760009765625 4.517387390136719 C 11.479114532470703 4.3382110595703125 10.960601806640625 4.228996276855469 10.438274383544922 4.1897430419921875 C 10.404800415039062 4.186805725097656 10.370658874511719 4.186805725097656 10.336803436279297 4.1844024658203125 C 10.118030548095703 4.171318054199219 9.89935302734375 4.1726531982421875 9.680675506591797 4.183868408203125 C 9.6353759765625 4.186805725097656 9.589790344238281 4.186805725097656 9.544395446777344 4.191078186035156 C 9.306549072265625 4.209236145019531 9.070037841796875 4.241813659667969 8.83591079711914 4.289878845214844 C 8.776592254638672 4.30242919921875 8.718704223632812 4.319252014160156 8.66024398803711 4.333137512207031 C 8.48495864868164 4.3745269775390625 8.31234359741211 4.424461364746094 8.14144515991211 4.4813385009765625 C 7.318614959716797 4.758514404296875 6.543754577636719 5.220207214355469 5.888484954833984 5.874961853027344 C 5.251716613769531 6.511558532714844 4.799388885498047 7.261375427246094 4.519199371337891 8.057121276855469 C 4.466651916503906 8.204521179199219 4.420207977294922 8.353790283203125 4.379962921142578 8.505462646484375 C 4.353450775146484 8.605064392089844 4.327033996582031 8.705734252929688 4.306053161621094 8.808273315429688 C 4.271434783935547 8.973564147949219 4.246829986572266 9.139656066894531 4.226802825927734 9.306282043457031 C 4.208587646484375 9.459823608398438 4.197811126708984 9.613365173339844 4.192470550537109 9.766639709472656 C 4.187511444091797 9.880661010742188 4.183887481689453 9.993881225585938 4.18646240234375 10.107635498046875 C 4.188655853271484 10.239280700683594 4.193614959716797 10.371192932128906 4.205249786376953 10.501502990722656 C 4.213069915771484 10.594161987304688 4.227756500244141 10.685752868652344 4.240058898925781 10.777076721191406 C 4.272102355957031 11.018470764160156 4.3192138671875 11.258262634277344 4.382061004638672 11.496185302734375 C 4.4019927978515625 11.570686340332031 4.420494079589844 11.6446533203125 4.443382263183594 11.719688415527344 C 4.487728118896484 11.863349914550781 4.537700653076172 12.006477355957031 4.593395233154297 12.147735595703125 C 4.617618560791016 12.208885192871094 4.646514892578125 12.268165588378906 4.672645568847656 12.328781127929688 C 4.781841278076172 12.578720092773438 4.910301208496094 12.822784423828125 5.056785583496094 13.059638977050781 C 5.096363067626953 13.123191833496094 5.134986877441406 13.188346862792969 5.177425384521484 13.251365661621094 C 5.26220703125 13.377403259277344 5.352424621582031 13.499168395996094 5.448554992675781 13.620132446289062 C 5.504917144775391 13.690093994140625 5.566619873046875 13.758720397949219 5.627559661865234 13.828147888183594 C 5.712055206298828 13.924545288085938 5.7951202392578125 14.023880004882812 5.887912750244141 14.115737915039062 C 6.504558563232422 14.733108520507812 7.225536346435547 15.180648803710938 7.993339538574219 15.463165283203125 C 8.005165100097656 15.467971801757812 8.016704559326172 15.471977233886719 8.028816223144531 15.476249694824219 C 8.527301788330078 15.655693054199219 9.045242309570312 15.763839721679688 9.568046569824219 15.803627014160156 C 9.600090026855469 15.805496215820312 9.631465911865234 15.8060302734375 9.663127899169922 15.80816650390625 C 9.8856201171875 15.821517944335938 10.108016967773438 15.820182800292969 10.330032348632812 15.80816650390625 C 10.37237548828125 15.805496215820312 10.414623260498047 15.805496215820312 10.45639419555664 15.802291870117188 C 10.697006225585938 15.783599853515625 10.936759948730469 15.750221252441406 11.17355728149414 15.70135498046875 C 11.22696304321289 15.690139770507812 11.280082702636719 15.674919128417969 11.33358383178711 15.662101745605469 C 11.51516342163086 15.62017822265625 11.69378662109375 15.567840576171875 11.871170043945312 15.508827209472656 C 12.690948486328125 15.230049133300781 13.462852478027344 14.770759582519531 14.116405487060547 14.117607116699219 C 14.754318237304688 13.479942321777344 15.206550598144531 12.728790283203125 15.486835479736328 11.931709289550781 C 15.538238525390625 11.786445617675781 15.584205627441406 11.640113830566406 15.623783111572266 11.491111755371094 C 15.650676727294922 11.3883056640625 15.6778564453125 11.284431457519531 15.699409484863281 11.180824279785156 C 15.732215881347656 11.024345397949219 15.755104064941406 10.865997314453125 15.774749755859375 10.707916259765625 C 15.794490814208984 10.543159484863281 15.807079315185547 10.378402709960938 15.813182830810547 10.212310791015625 C 15.817188262939453 10.104965209960938 15.820049285888672 9.998420715332031 15.8182373046875 9.891876220703125 C 15.816234588623047 9.755424499511719 15.811180114746094 9.620307922363281 15.798591613769531 9.484390258789062 Z M 9.119247436523438 8.077949523925781 C 9.119247436523438 8.077949523925781 10.846733093261719 8.058723449707031 10.846733093261719 8.058723449707031 C 10.846733093261719 8.058723449707031 10.919403076171875 14.586509704589844 10.919403076171875 14.586509704589844 C 10.919403076171875 14.586509704589844 9.191631317138672 14.605201721191406 9.191631317138672 14.605201721191406 C 9.191631317138672 14.605201721191406 9.119247436523438 8.077949523925781 9.119247436523438 8.077949523925781 Z M 9.091972351074219 5.5943145751953125 C 9.091972351074219 5.5943145751953125 10.81936264038086 5.575355529785156 10.81936264038086 5.575355529785156 C 10.81936264038086 5.575355529785156 10.836910247802734 7.173255920410156 10.836910247802734 7.173255920410156 C 10.836910247802734 7.173255920410156 9.109519958496094 7.1927490234375 9.109519958496094 7.1927490234375 C 9.109519958496094 7.1927490234375 9.091972351074219 5.5943145751953125 9.091972351074219 5.5943145751953125 Z"/></g></svg>