<svg version="1.1" xmlns="http://www.w3.org/2000/svg" xmlns:xlink="http://www.w3.org/1999/xlink" width="19" height="19"><defs/><g><path fill="#93a6b0" stroke="none" paint-order="stroke fill markers" fill-rule="evenodd" d=" M 14.90774917602539 1.99896240234375 C 14.90774917602539 1.99896240234375 5.0920562744140625 1.99896240234375 5.0920562744140625 1.99896240234375 C 3.386981964111328 1.99896240234375 1.9998626708984375 3.3856430053710938 1.9998626708984375 5.0906219482421875 C 1.9998626708984375 5.0906219482421875 1.9998626708984375 8.356651306152344 1.9998626708984375 8.356651306152344 C 1.9998626708984375 8.356651306152344 1.9998626708984375 14.906867980957031 1.9998626708984375 14.906867980957031 C 1.9998626708984375 16.611846923828125 3.386981964111328 17.99852752685547 5.0920562744140625 17.99852752685547 C 5.0920562744140625 17.99852752685547 14.90774917602539 17.99852752685547 14.90774917602539 17.99852752685547 C 16.612823486328125 17.99852752685547 17.999942779541016 16.611846923828125 17.999942779541016 14.906867980957031 C 17.999942779541016 14.906867980957031 17.999942779541016 8.356651306152344 17.999942779541016 8.356651306152344 C 17.999942779541016 8.356651306152344 17.999942779541016 5.0906219482421875 17.999942779541016 5.0906219482421875 C 17.999942779541016 3.3856430053710938 16.612823486328125 1.99896240234375 14.90774917602539 1.99896240234375 Z M 15.794570922851562 3.8427963256835938 C 15.794570922851562 3.8427963256835938 16.14828872680664 3.8419952392578125 16.14828872680664 3.8419952392578125 C 16.14828872680664 3.8419952392578125 16.14828872680664 4.193939208984375 16.14828872680664 4.193939208984375 C 16.14828872680664 4.193939208984375 16.14828872680664 6.55340576171875 16.14828872680664 6.55340576171875 C 16.14828872680664 6.55340576171875 13.445384979248047 6.56195068359375 13.445384979248047 6.56195068359375 C 13.445384979248047 6.56195068359375 13.436229705810547 3.8502731323242188 13.436229705810547 3.8502731323242188 C 13.436229705810547 3.8502731323242188 15.794570922851562 3.8427963256835938 15.794570922851562 3.8427963256835938 Z M 7.716472625732422 8.356651306152344 C 8.228691101074219 7.647422790527344 9.060009002685547 7.182792663574219 9.999855041503906 7.182792663574219 C 10.939701080322266 7.182792663574219 11.771114349365234 7.647422790527344 12.283332824707031 8.356651306152344 C 12.616737365722656 8.819679260253906 12.816246032714844 9.385513305664062 12.816246032714844 9.9991455078125 C 12.816246032714844 11.551116943359375 11.552055358886719 12.814430236816406 9.999855041503906 12.814430236816406 C 8.44698715209961 12.814430236816406 7.183845520019531 11.551116943359375 7.183845520019531 9.9991455078125 C 7.183845520019531 9.385513305664062 7.383068084716797 8.819679260253906 7.716472625732422 8.356651306152344 Z M 16.44106674194336 14.906867980957031 C 16.44106674194336 15.752548217773438 15.753372192382812 16.43988037109375 14.90774917602539 16.43988037109375 C 14.90774917602539 16.43988037109375 5.0920562744140625 16.43988037109375 5.0920562744140625 16.43988037109375 C 4.246433258056641 16.43988037109375 3.5587387084960938 15.752548217773438 3.5587387084960938 14.906867980957031 C 3.5587387084960938 14.906867980957031 3.5587387084960938 8.356651306152344 3.5587387084960938 8.356651306152344 C 3.5587387084960938 8.356651306152344 5.947120666503906 8.356651306152344 5.947120666503906 8.356651306152344 C 5.740936279296875 8.864006042480469 5.624969482421875 9.418357849121094 5.624969482421875 9.9991455078125 C 5.624969482421875 12.41094970703125 7.587249755859375 14.3741455078125 9.999855041503906 14.3741455078125 C 12.412555694580078 14.3741455078125 14.374835968017578 12.41094970703125 14.374835968017578 9.9991455078125 C 14.374835968017578 9.418357849121094 14.258201599121094 8.864006042480469 14.052017211914062 8.356651306152344 C 14.052017211914062 8.356651306152344 16.44106674194336 8.356651306152344 16.44106674194336 8.356651306152344 C 16.44106674194336 8.356651306152344 16.44106674194336 14.906867980957031 16.44106674194336 14.906867980957031 Z"/></g></svg>