<svg version="1.1" xmlns="http://www.w3.org/2000/svg" xmlns:xlink="http://www.w3.org/1999/xlink" width="19" height="18"><defs/><g><path fill="#93a6b0" stroke="none" paint-order="stroke fill markers" fill-rule="evenodd" d=" M 14.57015609741211 16.998748779296875 C 14.57015609741211 16.998748779296875 14.57015609741211 11.584739685058594 14.57015609741211 11.584739685058594 C 14.57015609741211 10.225028991699219 14.074054718017578 9.295501708984375 12.831893920898438 9.295501708984375 C 11.885562896728516 9.295501708984375 11.32012939453125 9.924087524414062 11.072078704833984 10.527572631835938 C 10.98128890991211 10.743598937988281 10.958877563476562 11.042938232421875 10.958877563476562 11.34735107421875 C 10.958877563476562 11.34735107421875 10.958877563476562 16.998748779296875 10.958877563476562 16.998748779296875 C 10.958877563476562 16.998748779296875 7.530132293701172 16.998748779296875 7.530132293701172 16.998748779296875 C 7.530132293701172 16.998748779296875 7.5740966796875 7.8284454345703125 7.530132293701172 6.880226135253906 C 7.530132293701172 6.880226135253906 10.958877563476562 6.880226135253906 10.958877563476562 6.880226135253906 C 10.958877563476562 6.880226135253906 10.958877563476562 8.313102722167969 10.958877563476562 8.313102722167969 C 11.415782928466797 7.6212310791015625 12.230316162109375 6.642570495605469 14.050689697265625 6.642570495605469 C 16.306415557861328 6.642570495605469 17.999855041503906 8.086662292480469 17.999855041503906 11.195945739746094 C 17.999855041503906 11.195945739746094 17.999855041503906 16.998748779296875 17.999855041503906 16.998748779296875 C 17.999855041503906 16.998748779296875 14.57015609741211 16.998748779296875 14.57015609741211 16.998748779296875 Z M 3.916851043701172 5.4967498779296875 C 3.916851043701172 5.4967498779296875 3.8943443298339844 5.4967498779296875 3.8943443298339844 5.4967498779296875 C 2.743927001953125 5.4967498779296875 1.9998703002929688 4.7191619873046875 1.9998703002929688 3.747711181640625 C 1.9998703002929688 2.75543212890625 2.7674827575683594 1.9984054565429688 3.9392623901367188 1.9984054565429688 C 5.113140106201172 1.9984054565429688 5.8357391357421875 2.75543212890625 5.857196807861328 3.747711181640625 C 5.857196807861328 4.7191619873046875 5.113140106201172 5.4967498779296875 3.916851043701172 5.4967498779296875 Z M 5.632606506347656 16.998748779296875 C 5.632606506347656 16.998748779296875 2.201953887939453 16.998748779296875 2.201953887939453 16.998748779296875 C 2.201953887939453 16.998748779296875 2.201953887939453 6.880226135253906 2.201953887939453 6.880226135253906 C 2.201953887939453 6.880226135253906 5.632606506347656 6.880226135253906 5.632606506347656 6.880226135253906 C 5.632606506347656 6.880226135253906 5.632606506347656 16.998748779296875 5.632606506347656 16.998748779296875 Z"/></g></svg>