<svg version="1.1" xmlns="http://www.w3.org/2000/svg" xmlns:xlink="http://www.w3.org/1999/xlink" width="26" height="26"><defs/><g><path fill="rgb(138,152,160)" stroke="none" paint-order="stroke fill markers" fill-rule="evenodd" d=" M 23.731033325195312 8.148216247558594 C 23.731033325195312 8.148216247558594 17.850772857666016 14.028457641601562 17.850772857666016 14.028457641601562 C 17.30956268310547 14.569725036621094 16.431991577148438 14.569725036621094 15.89068603515625 14.028457641601562 C 15.89068603515625 14.028457641601562 15.311996459960938 13.449539184570312 15.311996459960938 13.449539184570312 C 15.311996459960938 13.449539184570312 13.450233459472656 15.311531066894531 13.450233459472656 15.311531066894531 C 13.450233459472656 15.311531066894531 14.02911376953125 15.890182495117188 14.02911376953125 15.890182495117188 C 14.570323944091797 16.431182861328125 14.570323944091797 17.30890655517578 14.02911376953125 17.850173950195312 C 14.02911376953125 17.850173950195312 8.148757934570312 23.73041534423828 8.148757934570312 23.73041534423828 C 7.607547760009766 24.271682739257812 6.729976654052734 24.271682739257812 6.1887664794921875 23.73041534423828 C 6.1887664794921875 23.73041534423828 2.2684974670410156 19.81043243408203 2.2684974670410156 19.81043243408203 C 1.7271919250488281 19.268630981445312 1.7271919250488281 18.391441345214844 2.2684974670410156 17.850173950195312 C 2.2684974670410156 17.850173950195312 8.148757934570312 11.969932556152344 8.148757934570312 11.969932556152344 C 8.68996810913086 11.428665161132812 9.56753921508789 11.428665161132812 10.108844757080078 11.969932556152344 C 10.108844757080078 11.969932556152344 10.730926513671875 12.592109680175781 10.730926513671875 12.592109680175781 C 10.730926513671875 12.592109680175781 12.592594146728516 10.730117797851562 12.592594146728516 10.730117797851562 C 12.592594146728516 10.730117797851562 11.970417022705078 10.108207702636719 11.970417022705078 10.108207702636719 C 11.429206848144531 9.566673278808594 11.429206848144531 8.689483642578125 11.970417022705078 8.148216247558594 C 11.970417022705078 8.148216247558594 17.850772857666016 2.2677078247070312 17.850772857666016 2.2677078247070312 C 18.392078399658203 1.7264404296875 19.269649505615234 1.7264404296875 19.81085968017578 2.2677078247070312 C 19.81085968017578 2.2677078247070312 23.731033325195312 6.187957763671875 23.731033325195312 6.187957763671875 C 24.2723388671875 6.729225158691406 24.2723388671875 7.6069488525390625 23.731033325195312 8.148216247558594 Z M 9.618846893310547 13.440193176269531 C 9.348194122314453 13.169158935546875 8.909408569335938 13.169158935546875 8.638755798339844 13.440193176269531 C 8.638755798339844 13.440193176269531 3.7384910583496094 18.340171813964844 3.7384910583496094 18.340171813964844 C 3.4679336547851562 18.610939025878906 3.4679336547851562 19.049667358398438 3.7384910583496094 19.319900512695312 C 3.7384910583496094 19.319900512695312 6.678668975830078 22.260421752929688 6.678668975830078 22.260421752929688 C 6.949321746826172 22.530921936035156 7.388202667236328 22.530921936035156 7.658760070800781 22.260421752929688 C 7.658760070800781 22.260421752929688 12.559024810791016 17.36017608642578 12.559024810791016 17.36017608642578 C 12.82967758178711 17.089675903320312 12.82967758178711 16.650413513183594 12.559024810791016 16.379913330078125 C 12.559024810791016 16.379913330078125 12.068931579589844 15.890182495117188 12.068931579589844 15.890182495117188 C 12.068931579589844 15.890182495117188 10.071937561035156 17.88702392578125 10.071937561035156 17.88702392578125 C 9.801284790039062 18.157791137695312 9.362594604492188 18.157791137695312 9.091846466064453 17.88702392578125 C 9.091846466064453 17.88702392578125 8.11185073852539 16.907028198242188 8.11185073852539 16.907028198242188 C 7.841197967529297 16.636260986328125 7.841197967529297 16.197265625 8.11185073852539 15.926765441894531 C 8.11185073852539 15.926765441894531 10.108844757080078 13.929924011230469 10.108844757080078 13.929924011230469 C 10.108844757080078 13.929924011230469 9.618846893310547 13.440193176269531 9.618846893310547 13.440193176269531 Z M 8.949748992919922 16.112884521484375 C 8.773414611816406 16.28912353515625 8.773414611816406 16.57537841796875 8.949748992919922 16.751617431640625 C 8.949748992919922 16.751617431640625 9.247295379638672 17.049354553222656 9.247295379638672 17.049354553222656 C 9.423725128173828 17.22559356689453 9.709636688232422 17.22559356689453 9.885971069335938 17.049354553222656 C 9.885971069335938 17.049354553222656 17.396347045898438 9.539169311523438 17.396347045898438 9.539169311523438 C 17.572681427001953 9.362129211425781 17.572681427001953 9.076675415039062 17.396347045898438 8.900169372558594 C 17.396347045898438 8.900169372558594 17.098705291748047 8.602699279785156 17.098705291748047 8.602699279785156 C 16.92237091064453 8.426193237304688 16.636459350585938 8.426193237304688 16.45993423461914 8.602699279785156 C 16.45993423461914 8.602699279785156 8.949748992919922 16.112884521484375 8.949748992919922 16.112884521484375 Z M 22.26103973388672 6.677955627441406 C 22.26103973388672 6.677955627441406 19.32076644897461 3.7379684448242188 19.32076644897461 3.7379684448242188 C 19.050209045410156 3.4672012329101562 18.611328125 3.4672012329101562 18.340770721435547 3.7379684448242188 C 18.340770721435547 3.7379684448242188 13.440505981445312 8.637947082519531 13.440505981445312 8.637947082519531 C 13.169853210449219 8.908714294433594 13.169853210449219 9.347709655761719 13.440505981445312 9.617942810058594 C 13.440505981445312 9.617942810058594 13.930599212646484 10.108207702636719 13.930599212646484 10.108207702636719 C 13.930599212646484 10.108207702636719 16.274158477783203 7.764762878417969 16.274158477783203 7.764762878417969 C 16.544811248779297 7.4942626953125 16.983501434326172 7.4942626953125 17.254154205322266 7.764762878417969 C 17.254154205322266 7.764762878417969 18.234149932861328 8.745025634765625 18.234149932861328 8.745025634765625 C 18.504802703857422 9.0152587890625 18.504802703857422 9.453987121582031 18.234149932861328 9.724754333496094 C 18.234149932861328 9.724754333496094 15.89068603515625 12.068466186523438 15.89068603515625 12.068466186523438 C 15.89068603515625 12.068466186523438 16.38068389892578 12.558197021484375 16.38068389892578 12.558197021484375 C 16.651241302490234 12.829231262207031 17.09012222290039 12.829231262207031 17.360774993896484 12.558197021484375 C 17.360774993896484 12.558197021484375 22.26103973388672 7.657951354980469 22.26103973388672 7.657951354980469 C 22.531597137451172 7.387451171875 22.531597137451172 6.948722839355469 22.26103973388672 6.677955627441406 Z"/></g></svg>