<svg version="1.1" xmlns="http://www.w3.org/2000/svg" xmlns:xlink="http://www.w3.org/1999/xlink" width="18" height="26"><defs/><g><path fill="#547e93" stroke="none" paint-order="stroke fill markers" fill-rule="evenodd" d=" M 10.379585266113281 22.982498168945312 C 9.974559783935547 23.528038024902344 9.703907012939453 24.180389404296875 8.99990463256836 24.180389404296875 C 8.295806884765625 24.180389404296875 7.893833160400391 23.440719604492188 7.6202239990234375 22.982498168945312 C 5.759223937988281 19.91674041748047 1.2123908996582031 12.895217895507812 1.2123908996582031 9.480720520019531 C 1.2123908996582031 5.179954528808594 4.699024200439453 1.693359375 8.99990463256836 1.693359375 C 13.300785064697266 1.693359375 16.787418365478516 5.179954528808594 16.787418365478516 9.480720520019531 C 16.787418365478516 12.895217895507812 12.284263610839844 19.82915496826172 10.379585266113281 22.982498168945312 Z M 8.99990463256836 3.2445297241210938 C 5.560192108154297 3.2445297241210938 2.771648406982422 6.032844543457031 2.771648406982422 9.472709655761719 C 2.771648406982422 12.203346252441406 6.408008575439453 18.51911163330078 7.896503448486328 20.970970153808594 C 8.115276336669922 21.337600708007812 8.436759948730469 21.929336547851562 8.99990463256836 21.929336547851562 C 9.56295394897461 21.929336547851562 9.779438018798828 21.407028198242188 10.10321044921875 20.970970153808594 C 11.626705169677734 18.449417114257812 15.228065490722656 12.203346252441406 15.228065490722656 9.472709655761719 C 15.228065490722656 6.032844543457031 12.439521789550781 3.2445297241210938 8.99990463256836 3.2445297241210938 Z M 6.243595123291016 9.480720520019531 C 6.243595123291016 7.9583892822265625 7.477649688720703 6.724449157714844 8.99990463256836 6.724449157714844 C 10.522159576416016 6.724449157714844 11.756118774414062 7.9583892822265625 11.756118774414062 9.480720520019531 C 11.756118774414062 11.0030517578125 10.522159576416016 12.236991882324219 8.99990463256836 12.236991882324219 C 7.477649688720703 12.236991882324219 6.243595123291016 11.0030517578125 6.243595123291016 9.480720520019531 Z M 10.924896240234375 9.480720520019531 C 10.924896240234375 8.417678833007812 10.063060760498047 7.5557098388671875 8.99990463256836 7.5557098388671875 C 7.936653137207031 7.5557098388671875 7.074817657470703 8.417678833007812 7.074817657470703 9.480720520019531 C 7.074817657470703 10.543495178222656 7.936653137207031 11.405731201171875 8.99990463256836 11.405731201171875 C 10.063060760498047 11.405731201171875 10.924896240234375 10.543495178222656 10.924896240234375 9.480720520019531 Z"/></g></svg>