<svg version="1.1" xmlns="http://www.w3.org/2000/svg" xmlns:xlink="http://www.w3.org/1999/xlink" width="21" height="13"><defs/><g><path fill="rgb(0,143,213)" stroke="none" paint-order="stroke fill markers" fill-rule="evenodd" d=" M 12.58352279663086 6.927162170410156 C 12.58352279663086 6.927162170410156 19.33706283569336 1.3964614868164062 19.33706283569336 1.3964614868164062 C 19.33706283569336 1.3964614868164062 19.33706283569336 11.822868347167969 19.33706283569336 11.822868347167969 C 19.33706283569336 11.822868347167969 12.58352279663086 6.927162170410156 12.58352279663086 6.927162170410156 Z M 1.8143463134765625 1.0033950805664062 C 1.8143463134765625 1.0033950805664062 18.504409790039062 1.0033950805664062 18.504409790039062 1.0033950805664062 C 18.504409790039062 1.0033950805664062 10.148983001708984 7.855888366699219 10.148983001708984 7.855888366699219 C 10.148983001708984 7.855888366699219 1.8143463134765625 1.0033950805664062 1.8143463134765625 1.0033950805664062 Z M 1.0034370422363281 11.474395751953125 C 1.0034370422363281 11.474395751953125 1.0034370422363281 1.4130172729492188 1.0034370422363281 1.4130172729492188 C 1.0034370422363281 1.4130172729492188 7.521419525146484 6.7495880126953125 7.521419525146484 6.7495880126953125 C 7.521419525146484 6.7495880126953125 1.0034370422363281 11.474395751953125 1.0034370422363281 11.474395751953125 Z M 10.160045623779297 8.912521362304688 C 10.160045623779297 8.912521362304688 11.893730163574219 7.492195129394531 11.893730163574219 7.492195129394531 C 11.893730163574219 7.492195129394531 18.20962905883789 11.995635986328125 18.20962905883789 11.995635986328125 C 18.20962905883789 11.995635986328125 1.6483116149902344 11.995635986328125 1.6483116149902344 11.995635986328125 C 1.6483116149902344 11.995635986328125 8.205204010009766 7.310081481933594 8.205204010009766 7.310081481933594 C 8.205204010009766 7.310081481933594 10.160045623779297 8.912521362304688 10.160045623779297 8.912521362304688 Z"/></g></svg>