<svg version="1.1" xmlns="http://www.w3.org/2000/svg" xmlns:xlink="http://www.w3.org/1999/xlink" width="20" height="15"><defs/><g><path fill="#547e93" stroke="none" paint-order="stroke fill markers" fill-rule="evenodd" d=" M 18.799861907958984 12.724311828613281 C 18.799861907958984 12.922714233398438 18.743309020996094 13.105628967285156 18.651756286621094 13.265846252441406 C 18.651756286621094 13.265846252441406 18.651756286621094 13.265846252441406 18.651756286621094 13.265846252441406 C 18.651756286621094 13.265846252441406 18.651756286621094 13.265846252441406 18.651756286621094 13.265846252441406 C 18.546184539794922 13.451164245605469 18.39006805419922 13.600700378417969 18.200286865234375 13.698699951171875 C 18.200286865234375 13.698699951171875 18.200286865234375 13.698699951171875 18.200286865234375 13.698699951171875 C 18.200286865234375 13.698699951171875 18.200286865234375 13.698699951171875 18.200286865234375 13.698699951171875 C 18.049606323242188 13.776138305664062 17.881187438964844 13.824470520019531 17.699893951416016 13.824470520019531 C 17.699893951416016 13.824470520019531 2.29986572265625 13.824470520019531 2.29986572265625 13.824470520019531 C 1.8798675537109375 13.824470520019531 1.5194740295410156 13.586280822753906 1.3340797424316406 13.240478515625 C 1.3340797424316406 13.240478515625 1.3340797424316406 13.240478515625 1.3340797424316406 13.240478515625 C 1.3340797424316406 13.240478515625 1.3340797424316406 13.240478515625 1.3340797424316406 13.240478515625 C 1.2513008117675781 13.085601806640625 1.1998023986816406 12.912033081054688 1.1998023986816406 12.724311828613281 C 1.1998023986816406 12.724311828613281 1.1998023986816406 2.274139404296875 1.1998023986816406 2.274139404296875 C 1.1998023986816406 1.6669158935546875 1.6923751831054688 1.1745147705078125 2.29986572265625 1.1745147705078125 C 2.29986572265625 1.1745147705078125 17.699893951416016 1.1745147705078125 17.699893951416016 1.1745147705078125 C 18.02261734008789 1.1745147705078125 18.310054779052734 1.3157730102539062 18.511280059814453 1.5368728637695312 C 18.51375961303711 1.5398101806640625 18.516048431396484 1.5432815551757812 18.51852798461914 1.5462188720703125 C 18.55963134765625 1.5921478271484375 18.59758758544922 1.6410140991210938 18.630393981933594 1.693084716796875 C 18.633827209472656 1.6989593505859375 18.636306762695312 1.7045669555664062 18.639644622802734 1.710174560546875 C 18.67111587524414 1.7622451782226562 18.699535369873047 1.8161849975585938 18.721946716308594 1.87359619140625 C 18.721946716308594 1.87359619140625 18.721946716308594 1.87359619140625 18.721946716308594 1.87359619140625 C 18.721946716308594 1.87359619140625 18.721946716308594 1.87359619140625 18.721946716308594 1.87359619140625 C 18.770870208740234 1.9980316162109375 18.799861907958984 2.1326141357421875 18.799861907958984 2.274139404296875 C 18.799861907958984 2.274139404296875 18.799861907958984 12.724311828613281 18.799861907958984 12.724311828613281 Z M 13.087448120117188 7.6366119384765625 C 13.087448120117188 7.6366119384765625 17.687305450439453 12.236717224121094 17.687305450439453 12.236717224121094 C 17.68978500366211 12.215087890625 17.699893951416016 12.196395874023438 17.699893951416016 12.17449951171875 C 17.699893951416016 12.17449951171875 17.699893951416016 3.0247573852539062 17.699893951416016 3.0247573852539062 C 17.699893951416016 3.0247573852539062 13.087448120117188 7.6366119384765625 13.087448120117188 7.6366119384765625 Z M 17.14990997314453 12.724311828613281 C 17.172321319580078 12.724311828613281 17.191490173339844 12.714164733886719 17.213233947753906 12.711494445800781 C 17.213233947753906 12.711494445800781 12.612995147705078 8.111122131347656 12.612995147705078 8.111122131347656 C 12.612995147705078 8.111122131347656 10.792240142822266 9.932258605957031 10.792240142822266 9.932258605957031 C 10.345157623291016 10.379531860351562 9.620269775390625 10.379531860351562 9.173091888427734 9.932258605957031 C 9.173091888427734 9.932258605957031 7.369503021240234 8.128746032714844 7.369503021240234 8.128746032714844 C 7.369503021240234 8.128746032714844 2.7864303588867188 12.711494445800781 2.7864303588867188 12.711494445800781 C 2.8083648681640625 12.714164733886719 2.827342987060547 12.724311828613281 2.8498497009277344 12.724311828613281 C 2.8498497009277344 12.724311828613281 17.14990997314453 12.724311828613281 17.14990997314453 12.724311828613281 Z M 2.29986572265625 3.0589370727539062 C 2.29986572265625 3.0589370727539062 2.29986572265625 12.17449951171875 2.29986572265625 12.17449951171875 C 2.29986572265625 12.186248779296875 2.30596923828125 12.196128845214844 2.3066368103027344 12.208145141601562 C 2.3066368103027344 12.208145141601562 6.8778839111328125 7.6366119384765625 6.8778839111328125 7.6366119384765625 C 6.8778839111328125 7.6366119384765625 2.29986572265625 3.0589370727539062 2.29986572265625 3.0589370727539062 Z M 2.8498497009277344 2.274139404296875 C 2.827342987060547 2.274139404296875 2.8083648681640625 2.2842864990234375 2.7864303588867188 2.286956787109375 C 2.7864303588867188 2.286956787109375 9.610923767089844 9.111679077148438 9.610923767089844 9.111679077148438 C 9.825786590576172 9.326370239257812 10.174068450927734 9.326370239257812 10.388740539550781 9.111679077148438 C 10.388740539550781 9.111679077148438 17.213233947753906 2.286956787109375 17.213233947753906 2.286956787109375 C 17.191490173339844 2.2842864990234375 17.172321319580078 2.274139404296875 17.14990997314453 2.274139404296875 C 17.14990997314453 2.274139404296875 2.8498497009277344 2.274139404296875 2.8498497009277344 2.274139404296875 Z"/></g></svg>