<svg version="1.1" xmlns="http://www.w3.org/2000/svg" xmlns:xlink="http://www.w3.org/1999/xlink" width="47" height="47"><defs/><g><path fill="rgb(255,255,255)" stroke="none" paint-order="stroke fill markers" fill-rule="evenodd" d=" M 35.270389556884766 5.318962097167969 C 35.270389556884766 5.318962097167969 31.744369506835938 11.426177978515625 31.744369506835938 11.426177978515625 C 35.542091369628906 13.973098754882812 38.1132926940918 18.210845947265625 38.37202453613281 23.053680419921875 C 38.37202453613281 23.053680419921875 45.41366958618164 23.053680419921875 45.41366958618164 23.053680419921875 C 45.1454963684082 15.598503112792969 41.169342041015625 9.09234619140625 35.270389556884766 5.318962097167969 Z M 11.70233154296875 14.5931396484375 C 14.443477630615234 11.127906799316406 18.682941436767578 8.898483276367188 23.434242248535156 8.898483276367188 C 25.87917709350586 8.898483276367188 28.186687469482422 9.4918212890625 30.226787567138672 10.535636901855469 C 30.226787567138672 10.535636901855469 33.753665924072266 4.427886962890625 33.753665924072266 4.427886962890625 C 30.675586700439453 2.789398193359375 27.1640625 1.8582687377929688 23.434242248535156 1.8582687377929688 C 16.288646697998047 1.8582687377929688 9.941276550292969 5.2679595947265625 5.922874450683594 10.546585083007812 C 5.922874450683594 10.546585083007812 11.70233154296875 14.5931396484375 11.70233154296875 14.5931396484375 Z M 22.62752914428711 38.79582977294922 C 14.752182006835938 38.375526428222656 8.474334716796875 31.837326049804688 8.474334716796875 23.858505249023438 C 8.474334716796875 20.99114990234375 9.286483764648438 18.311782836914062 10.690673828125 16.032958984375 C 10.690673828125 16.032958984375 4.914936065673828 11.98907470703125 4.914936065673828 11.98907470703125 C 2.714618682861328 15.414520263671875 1.4343109130859375 19.485374450683594 1.4343109130859375 23.859039306640625 C 1.4343109130859375 35.73834991455078 10.851272583007812 45.412803649902344 22.62752914428711 45.838714599609375 C 22.62752914428711 45.838714599609375 22.62752914428711 38.79582977294922 22.62752914428711 38.79582977294922 Z M 38.360008239746094 24.813934326171875 C 37.885459899902344 32.302757263183594 31.876739501953125 38.31090545654297 24.387439727783203 38.784881591796875 C 24.387439727783203 38.784881591796875 24.387439727783203 45.83390808105469 24.387439727783203 45.83390808105469 C 35.778316497802734 45.348182678222656 44.923099517822266 36.203514099121094 45.40937805175781 24.813934326171875 C 45.40937805175781 24.813934326171875 38.360008239746094 24.813934326171875 38.360008239746094 24.813934326171875 Z M 13.827308654785156 23.93354034423828 C 13.827308654785156 23.93354034423828 15.587409973144531 23.93354034423828 15.587409973144531 23.93354034423828 C 15.587409973144531 23.93354034423828 15.587409973144531 30.974021911621094 15.587409973144531 30.974021911621094 C 15.587409973144531 30.974021911621094 13.827308654785156 30.974021911621094 13.827308654785156 30.974021911621094 C 13.827308654785156 30.974021911621094 13.827308654785156 23.93354034423828 13.827308654785156 23.93354034423828 Z M 17.347320556640625 16.893592834472656 C 17.347320556640625 16.893592834472656 19.107421875 16.893592834472656 19.107421875 16.893592834472656 C 19.107421875 16.893592834472656 19.107421875 30.974021911621094 19.107421875 30.974021911621094 C 19.107421875 30.974021911621094 17.347320556640625 30.974021911621094 17.347320556640625 30.974021911621094 C 17.347320556640625 30.974021911621094 17.347320556640625 16.893592834472656 17.347320556640625 16.893592834472656 Z M 20.867237091064453 20.41356658935547 C 20.867237091064453 20.41356658935547 22.62752914428711 20.41356658935547 22.62752914428711 20.41356658935547 C 22.62752914428711 20.41356658935547 22.62752914428711 30.974021911621094 22.62752914428711 30.974021911621094 C 22.62752914428711 30.974021911621094 20.867237091064453 30.974021911621094 20.867237091064453 30.974021911621094 C 20.867237091064453 30.974021911621094 20.867237091064453 20.41356658935547 20.867237091064453 20.41356658935547 Z M 24.387439727783203 23.93354034423828 C 24.387439727783203 23.93354034423828 26.147541046142578 23.93354034423828 26.147541046142578 23.93354034423828 C 26.147541046142578 23.93354034423828 26.147541046142578 30.974021911621094 26.147541046142578 30.974021911621094 C 26.147541046142578 30.974021911621094 24.387439727783203 30.974021911621094 24.387439727783203 30.974021911621094 C 24.387439727783203 30.974021911621094 24.387439727783203 23.93354034423828 24.387439727783203 23.93354034423828 Z M 27.467426300048828 20.41356658935547 C 27.467426300048828 20.41356658935547 29.227336883544922 20.41356658935547 29.227336883544922 20.41356658935547 C 29.227336883544922 20.41356658935547 29.227336883544922 30.974021911621094 29.227336883544922 30.974021911621094 C 29.227336883544922 30.974021911621094 27.467426300048828 30.974021911621094 27.467426300048828 30.974021911621094 C 27.467426300048828 30.974021911621094 27.467426300048828 20.41356658935547 27.467426300048828 20.41356658935547 Z M 30.987342834472656 16.893592834472656 C 30.987342834472656 16.893592834472656 32.74744415283203 16.893592834472656 32.74744415283203 16.893592834472656 C 32.74744415283203 16.893592834472656 32.74744415283203 30.974021911621094 32.74744415283203 30.974021911621094 C 32.74744415283203 30.974021911621094 30.987342834472656 30.974021911621094 30.987342834472656 30.974021911621094 C 30.987342834472656 30.974021911621094 30.987342834472656 16.893592834472656 30.987342834472656 16.893592834472656 Z"/></g></svg>