<svg version="1.1" xmlns="http://www.w3.org/2000/svg" xmlns:xlink="http://www.w3.org/1999/xlink" width="16" height="22"><defs/><g><path fill="#547e93" stroke="none" paint-order="stroke fill markers" fill-rule="evenodd" d=" M 13.399917602539062 20.599464416503906 C 13.399917602539062 20.599464416503906 2.5999374389648438 20.599464416503906 2.5999374389648438 20.599464416503906 C 1.9370384216308594 20.599464416503906 1.3998336791992188 20.061935424804688 1.3998336791992188 19.399169921875 C 1.3998336791992188 19.399169921875 1.3998336791992188 2.5993194580078125 1.3998336791992188 2.5993194580078125 C 1.3998336791992188 1.9368209838867188 1.9370384216308594 1.3995590209960938 2.5999374389648438 1.3995590209960938 C 2.5999374389648438 1.3995590209960938 13.399917602539062 1.3995590209960938 13.399917602539062 1.3995590209960938 C 14.062625885009766 1.3995590209960938 14.599830627441406 1.9368209838867188 14.599830627441406 2.5993194580078125 C 14.599830627441406 2.5993194580078125 14.599830627441406 19.399169921875 14.599830627441406 19.399169921875 C 14.599830627441406 20.061935424804688 14.062625885009766 20.599464416503906 13.399917602539062 20.599464416503906 Z M 13.399917602539062 3.1996002197265625 C 13.399917602539062 2.8682174682617188 13.131267547607422 2.5993194580078125 12.79986572265625 2.5993194580078125 C 12.79986572265625 2.5993194580078125 3.1998939514160156 2.5993194580078125 3.1998939514160156 2.5993194580078125 C 2.8685874938964844 2.5993194580078125 2.5999374389648438 2.8682174682617188 2.5999374389648438 3.1996002197265625 C 2.5999374389648438 3.1996002197265625 2.5999374389648438 18.79969024658203 2.5999374389648438 18.79969024658203 C 2.5999374389648438 19.131072998046875 2.8685874938964844 19.399169921875 3.1998939514160156 19.399169921875 C 3.1998939514160156 19.399169921875 12.79986572265625 19.399169921875 12.79986572265625 19.399169921875 C 13.131267547607422 19.399169921875 13.399917602539062 19.131072998046875 13.399917602539062 18.79969024658203 C 13.399917602539062 18.79969024658203 13.399917602539062 3.1996002197265625 13.399917602539062 3.1996002197265625 Z M 12.199909210205078 17.599395751953125 C 12.199909210205078 17.599395751953125 3.799945831298828 17.599395751953125 3.799945831298828 17.599395751953125 C 3.4685440063476562 17.599395751953125 3.1998939514160156 17.330764770507812 3.1998939514160156 16.99938201904297 C 3.1998939514160156 16.99938201904297 3.1998939514160156 4.9993743896484375 3.1998939514160156 4.9993743896484375 C 3.1998939514160156 4.667991638183594 3.4685440063476562 4.399360656738281 3.799945831298828 4.399360656738281 C 3.799945831298828 4.399360656738281 12.199909210205078 4.399360656738281 12.199909210205078 4.399360656738281 C 12.53131103515625 4.399360656738281 12.79986572265625 4.667991638183594 12.79986572265625 4.9993743896484375 C 12.79986572265625 4.9993743896484375 12.79986572265625 16.99938201904297 12.79986572265625 16.99938201904297 C 12.79986572265625 17.330764770507812 12.53131103515625 17.599395751953125 12.199909210205078 17.599395751953125 Z M 12.199909210205078 4.9993743896484375 C 12.199909210205078 4.9993743896484375 3.799945831298828 4.9993743896484375 3.799945831298828 4.9993743896484375 C 3.799945831298828 4.9993743896484375 3.799945831298828 16.99938201904297 3.799945831298828 16.99938201904297 C 3.799945831298828 16.99938201904297 12.199909210205078 16.99938201904297 12.199909210205078 16.99938201904297 C 12.199909210205078 16.99938201904297 12.199909210205078 4.9993743896484375 12.199909210205078 4.9993743896484375 Z M 8.89981460571289 3.799346923828125 C 8.89981460571289 3.799346923828125 7.099849700927734 3.799346923828125 7.099849700927734 3.799346923828125 C 6.934196472167969 3.799346923828125 6.799823760986328 3.6650314331054688 6.799823760986328 3.49920654296875 C 6.799823760986328 3.333648681640625 6.934196472167969 3.1996002197265625 7.099849700927734 3.1996002197265625 C 7.099849700927734 3.1996002197265625 8.89981460571289 3.1996002197265625 8.89981460571289 3.1996002197265625 C 9.065563201904297 3.1996002197265625 9.199840545654297 3.333648681640625 9.199840545654297 3.49920654296875 C 9.199840545654297 3.6650314331054688 9.065563201904297 3.799346923828125 8.89981460571289 3.799346923828125 Z M 7.9998321533203125 17.899269104003906 C 8.331233978271484 17.899269104003906 8.599884033203125 18.16790008544922 8.599884033203125 18.499282836914062 C 8.599884033203125 18.830665588378906 8.331233978271484 19.099563598632812 7.9998321533203125 19.099563598632812 C 7.668525695800781 19.099563598632812 7.399875640869141 18.830665588378906 7.399875640869141 18.499282836914062 C 7.399875640869141 18.16790008544922 7.668525695800781 17.899269104003906 7.9998321533203125 17.899269104003906 Z"/></g></svg>