<svg version="1.1" xmlns="http://www.w3.org/2000/svg" xmlns:xlink="http://www.w3.org/1999/xlink" width="20" height="26"><defs/><g><path fill="rgb(138,152,160)" stroke="none" paint-order="stroke fill markers" fill-rule="evenodd" d=" M 11.344596862792969 1.7991180419921875 C 11.344596862792969 1.7991180419921875 12.744590759277344 3.1991500854492188 12.744590759277344 3.1991500854492188 C 12.744590759277344 3.1991500854492188 12.744590759277344 3.1991500854492188 12.744590759277344 3.1991500854492188 C 12.744590759277344 3.1991500854492188 13.4215087890625 3.8758010864257812 13.4215087890625 3.8758010864257812 C 13.4215087890625 3.8758010864257812 18.399784088134766 8.854286193847656 18.399784088134766 8.854286193847656 C 18.399784088134766 8.854286193847656 18.399784088134766 22.79906463623047 18.399784088134766 22.79906463623047 C 18.399784088134766 23.57238006591797 17.773029327392578 24.198829650878906 16.99979019165039 24.198829650878906 C 16.99979019165039 24.198829650878906 2.9998512268066406 24.198829650878906 2.9998512268066406 24.198829650878906 C 2.226612091064453 24.198829650878906 1.5998573303222656 23.57238006591797 1.5998573303222656 22.79906463623047 C 1.5998573303222656 22.79906463623047 1.5998573303222656 3.1991500854492188 1.5998573303222656 3.1991500854492188 C 1.5998573303222656 2.4261016845703125 2.226612091064453 1.7991180419921875 2.9998512268066406 1.7991180419921875 C 2.9998512268066406 1.7991180419921875 9.13521957397461 1.7991180419921875 9.13521957397461 1.7991180419921875 C 9.13521957397461 1.7991180419921875 11.294242858886719 1.7991180419921875 11.294242858886719 1.7991180419921875 C 11.294242858886719 1.7991180419921875 11.344596862792969 1.7991180419921875 11.344596862792969 1.7991180419921875 Z M 11.403533935546875 3.899566650390625 C 11.403533935546875 3.899566650390625 11.403533935546875 8.199798583984375 11.403533935546875 8.199798583984375 C 11.403533935546875 8.526908874511719 11.668560028076172 8.791801452636719 11.995574951171875 8.791801452636719 C 11.995574951171875 8.791801452636719 16.295692443847656 8.791801452636719 16.295692443847656 8.791801452636719 C 16.295692443847656 8.791801452636719 11.403533935546875 3.899566650390625 11.403533935546875 3.899566650390625 Z M 10.699913024902344 8.799278259277344 C 10.699913024902344 8.799278259277344 10.699913024902344 3.1991500854492188 10.699913024902344 3.1991500854492188 C 10.699913024902344 3.1991500854492188 3.699848175048828 3.1991500854492188 3.699848175048828 3.1991500854492188 C 3.3132286071777344 3.1991500854492188 2.9998512268066406 3.5126419067382812 2.9998512268066406 3.8990325927734375 C 2.9998512268066406 3.8990325927734375 2.9998512268066406 22.098915100097656 2.9998512268066406 22.098915100097656 C 2.9998512268066406 22.485572814941406 3.3132286071777344 22.79906463623047 3.699848175048828 22.79906463623047 C 3.699848175048828 22.79906463623047 16.299793243408203 22.79906463623047 16.299793243408203 22.79906463623047 C 16.686412811279297 22.79906463623047 16.99979019165039 22.485572814941406 16.99979019165039 22.098915100097656 C 16.99979019165039 22.098915100097656 16.99979019165039 9.499160766601562 16.99979019165039 9.499160766601562 C 16.99979019165039 9.499160766601562 11.399909973144531 9.499160766601562 11.399909973144531 9.499160766601562 C 11.013195037841797 9.499160766601562 10.699913024902344 9.1856689453125 10.699913024902344 8.799278259277344 Z"/></g></svg>