<svg version="1.1" xmlns="http://www.w3.org/2000/svg" xmlns:xlink="http://www.w3.org/1999/xlink" width="23" height="22"><defs/><g><path fill="rgb(255,255,255)" stroke="none" paint-order="stroke fill markers" fill-rule="evenodd" d=" M 20.960159301757812 10.752128601074219 C 20.962257385253906 10.835174560546875 20.972652435302734 10.916084289550781 20.972652435302734 10.999397277832031 C 20.972652435302734 10.999397277832031 20.972652435302734 10.999397277832031 20.972652435302734 10.999397277832031 C 20.972652435302734 10.999397277832031 20.213336944580078 10.999397277832031 20.213336944580078 10.999397277832031 C 20.213336944580078 10.999397277832031 20.213336944580078 10.999397277832031 20.213336944580078 10.999397277832031 C 20.213336944580078 10.993522644042969 20.20589828491211 10.987648010253906 20.203800201416016 10.982040405273438 C 20.17833709716797 10.983108520507812 20.15430450439453 10.989250183105469 20.128459930419922 10.989250183105469 C 20.128459930419922 10.989250183105469 17.440433502197266 10.989250183105469 17.440433502197266 10.989250183105469 C 17.440433502197266 10.992454528808594 17.440814971923828 10.995925903320312 17.440814971923828 10.999397277832031 C 17.440814971923828 10.999397277832031 16.680641174316406 10.999397277832031 16.680641174316406 10.999397277832031 C 16.680641174316406 10.995925903320312 16.677303314208984 10.992454528808594 16.677112579345703 10.989250183105469 C 16.677112579345703 10.989250183105469 14.068527221679688 10.989250183105469 14.068527221679688 10.989250183105469 C 13.231868743896484 10.989250183105469 12.55361557006836 10.354789733886719 12.55361557006836 9.5181884765625 C 12.55361557006836 9.5181884765625 14.553279876708984 7.518409729003906 14.553279876708984 7.518409729003906 C 13.677806854248047 6.593955993652344 12.480182647705078 5.98699951171875 11.143512725830078 5.98699951171875 C 8.47198486328125 5.98699951171875 5.956382751464844 8.152870178222656 5.956382751464844 10.999397277832031 C 5.956382751464844 14.020828247070312 8.034534454345703 16.361068725585938 11.143512725830078 16.361068725585938 C 13.216800689697266 16.361068725585938 14.982528686523438 15.317253112792969 15.932197570800781 13.727630615234375 C 15.932197570800781 13.727630615234375 15.972919464111328 13.747657775878906 15.972919464111328 13.747657775878906 C 16.290111541748047 12.990097045898438 17.037696838378906 12.4576416015625 17.910118103027344 12.4576416015625 C 19.069976806640625 12.4576416015625 20.010108947753906 13.397850036621094 20.010108947753906 14.55755615234375 C 20.010108947753906 14.931129455566406 19.904441833496094 15.276931762695312 19.733448028564453 15.580543518066406 C 19.733448028564453 15.580543518066406 19.81679916381836 15.62139892578125 19.81679916381836 15.62139892578125 C 18.162460327148438 18.71893310546875 14.90060806274414 20.82819366455078 11.143417358398438 20.82819366455078 C 5.715007781982422 20.82819366455078 1.3143730163574219 16.427825927734375 1.3143730163574219 10.999397277832031 C 1.3143730163574219 5.5709686279296875 5.715007781982422 1.1700668334960938 11.143417358398438 1.1700668334960938 C 13.839645385742188 1.1700668334960938 16.280670166015625 2.2574081420898438 18.056507110595703 4.014991760253906 C 18.056507110595703 4.014991760253906 20.128459930419922 1.943115234375 20.128459930419922 1.943115234375 C 20.965118408203125 1.943115234375 21.64356231689453 2.6216354370117188 21.64356231689453 3.4585037231445312 C 21.64356231689453 3.4585037231445312 21.64356231689453 9.5181884765625 21.64356231689453 9.5181884765625 C 21.64356231689453 10.047439575195312 21.371288299560547 10.494178771972656 20.960159301757812 10.752128601074219 Z M 20.24852752685547 5.3680267333984375 C 20.24852752685547 4.901527404785156 19.826908111572266 4.523681640625 19.36056137084961 4.523681640625 C 19.36056137084961 4.523681640625 17.857952117919922 6.026252746582031 17.857952117919922 6.026252746582031 C 17.601985931396484 5.6809844970703125 17.322845458984375 5.3552093505859375 17.018146514892578 5.053466796875 C 17.018146514892578 5.053466796875 17.06258773803711 5.0091400146484375 17.06258773803711 5.0091400146484375 C 15.54758071899414 3.4454193115234375 13.457794189453125 2.454742431640625 11.143417358398438 2.454742431640625 C 6.520957946777344 2.454742431640625 2.423686981201172 6.376861572265625 2.423686981201172 10.999397277832031 C 2.423686981201172 14.268096923828125 4.106731414794922 17.137855529785156 6.7069244384765625 18.683685302734375 C 6.7069244384765625 18.683685302734375 6.7069244384765625 18.683685302734375 6.7069244384765625 18.683685302734375 C 6.7069244384765625 18.683685302734375 6.7069244384765625 18.683685302734375 6.7069244384765625 18.683685302734375 C 7.329769134521484 19.054054260253906 8.004207611083984 19.346717834472656 8.722419738769531 19.551528930664062 C 8.784027099609375 19.569419860839844 8.846874237060547 19.583572387695312 8.909053802490234 19.59986114501953 C 9.190387725830078 19.673294067382812 9.477348327636719 19.73230743408203 9.7705078125 19.778236389160156 C 9.86063003540039 19.79212188720703 9.949703216552734 19.808143615722656 10.040969848632812 19.819625854492188 C 10.401649475097656 19.86395263671875 10.767669677734375 19.89385986328125 11.143417358398438 19.89385986328125 C 11.528606414794922 19.89385986328125 11.906547546386719 19.864486694335938 12.279052734375 19.817489624023438 C 12.413711547851562 19.80066680908203 12.543983459472656 19.771827697753906 12.676734924316406 19.749130249023438 C 12.90771484375 19.709609985351562 13.137073516845703 19.66661834716797 13.361854553222656 19.609474182128906 C 13.525314331054688 19.56835174560547 13.68448257446289 19.51921844482422 13.844318389892578 19.46955108642578 C 14.024276733398438 19.4132080078125 14.20156478881836 19.35259246826172 14.376564025878906 19.285301208496094 C 14.556331634521484 19.216941833496094 14.733333587646484 19.145111083984375 14.907379150390625 19.065536499023438 C 15.040512084960938 19.004920959472656 15.169639587402344 18.937362670898438 15.299339294433594 18.870338439941406 C 15.498085021972656 18.76806640625 15.695686340332031 18.66552734375 15.885467529296875 18.549636840820312 C 15.934867858886719 18.519195556640625 15.9808349609375 18.484481811523438 16.0296630859375 18.45323944091797 C 16.790504455566406 17.968048095703125 17.470951080322266 17.37657928466797 18.054218292236328 16.696990966796875 C 18.071956634521484 16.676429748535156 18.0926513671875 16.658538818359375 18.110294342041016 16.637176513671875 C 18.10924530029297 16.637710571289062 18.108196258544922 16.637710571289062 18.107147216796875 16.637977600097656 C 18.427677154541016 16.257728576660156 18.728656768798828 15.861724853515625 18.982715606689453 15.433143615722656 C 18.982715606689453 15.433143615722656 18.903942108154297 15.388015747070312 18.903942108154297 15.388015747070312 C 19.09353256225586 15.160240173339844 19.221515655517578 14.87799072265625 19.221515655517578 14.558891296386719 C 19.221515655517578 13.833908081054688 18.633861541748047 13.246177673339844 17.908878326416016 13.246177673339844 C 17.344017028808594 13.246177673339844 16.872425079345703 13.607200622558594 16.68741226196289 14.107879638671875 C 16.68741226196289 14.107879638671875 16.634387969970703 14.077438354492188 16.634387969970703 14.077438354492188 C 16.42477035522461 14.450477600097656 16.16851806640625 14.791473388671875 15.890235900878906 15.112709045410156 C 15.351314544677734 15.734886169433594 14.69156265258789 16.24651336669922 13.95132064819336 16.621421813964844 C 13.887519836425781 16.6531982421875 13.826103210449219 16.68871307373047 13.761062622070312 16.71862030029297 C 13.63698959350586 16.776565551757812 13.507862091064453 16.824630737304688 13.379402160644531 16.874298095703125 C 13.261909484863281 16.91889190673828 13.143653869628906 16.962417602539062 13.022823333740234 17.00060272216797 C 12.911815643310547 17.036117553710938 12.79947280883789 17.067626953125 12.685985565185547 17.09673309326172 C 12.529964447021484 17.135986328125 12.371273040771484 17.16802978515625 12.210960388183594 17.19580078125 C 12.119026184082031 17.211822509765625 12.028236389160156 17.230247497558594 11.935062408447266 17.242263793945312 C 11.675376892089844 17.275108337402344 11.412162780761719 17.296737670898438 11.143417358398438 17.296737670898438 C 11.143417358398438 17.296737670898438 11.143417358398438 17.296737670898438 11.143417358398438 17.296737670898438 C 10.88125228881836 17.296737670898438 10.624332427978516 17.27617645263672 10.370750427246094 17.244400024414062 C 10.306282043457031 17.236656188964844 10.243148803710938 17.22490692138672 10.179252624511719 17.21502685546875 C 9.973926544189453 17.183250427246094 9.771461486816406 17.142929077148438 9.573192596435547 17.09112548828125 C 9.52779769897461 17.079910278320312 9.481925964355469 17.069229125976562 9.436912536621094 17.05614471435547 C 8.928699493408203 16.911949157714844 8.445186614990234 16.708206176757812 7.997245788574219 16.44892120361328 C 7.997245788574219 16.44892120361328 7.997245788574219 16.44892120361328 7.997245788574219 16.44892120361328 C 6.115455627441406 15.359977722167969 4.8461151123046875 13.330024719238281 4.8461151123046875 10.999397277832031 C 4.8461151123046875 8.668769836425781 6.115455627441406 6.638816833496094 7.997245788574219 5.550140380859375 C 7.997245788574219 5.550140380859375 7.997245788574219 5.550140380859375 7.997245788574219 5.550140380859375 C 8.445186614990234 5.29058837890625 8.928699493408203 5.0871124267578125 9.436912536621094 4.942115783691406 C 9.481925964355469 4.929832458496094 9.52779769897461 4.919151306152344 9.573192596435547 4.907135009765625 C 9.771461486816406 4.856132507324219 9.973926544189453 4.815544128417969 10.179252624511719 4.783233642578125 C 10.243148803710938 4.773353576660156 10.306282043457031 4.762138366699219 10.370750427246094 4.754127502441406 C 10.624332427978516 4.7228851318359375 10.88125228881836 4.702056884765625 11.143417358398438 4.702056884765625 C 11.143417358398438 4.702056884765625 11.143417358398438 4.702056884765625 11.143417358398438 4.702056884765625 C 11.405487060546875 4.702056884765625 11.662216186523438 4.723152160644531 11.91579818725586 4.75439453125 C 11.9891357421875 4.7634735107421875 12.061424255371094 4.7757568359375 12.13409423828125 4.787239074707031 C 12.324542999267578 4.817146301269531 12.511940002441406 4.856132507324219 12.696189880371094 4.903129577636719 C 12.76123046875 4.919685363769531 12.827033996582031 4.9343719482421875 12.891120910644531 4.952796936035156 C 13.131256103515625 5.022491455078125 13.36700439453125 5.102867126464844 13.5943603515625 5.1992645263671875 C 13.613433837890625 5.207008361816406 13.631172180175781 5.217155456542969 13.650054931640625 5.2259674072265625 C 13.860149383544922 5.317291259765625 14.063186645507812 5.4214324951171875 14.260597229003906 5.5346527099609375 C 14.314289093017578 5.565361022949219 14.366836547851562 5.597938537597656 14.419574737548828 5.630516052246094 C 14.59676742553711 5.738929748535156 14.768619537353516 5.855354309082031 14.933605194091797 5.980857849121094 C 14.96603012084961 6.004890441894531 14.99969482421875 6.027854919433594 15.031452178955078 6.0526885986328125 C 15.552730560302734 6.464179992675781 15.998287200927734 6.962455749511719 16.368026733398438 7.5160064697265625 C 16.368026733398438 7.5160064697265625 15.139408111572266 8.744873046875 15.139408111572266 8.744873046875 C 15.139408111572266 9.211105346679688 15.517444610595703 9.588951110839844 15.983695983886719 9.588951110839844 C 15.983695983886719 9.588951110839844 19.404335021972656 9.588951110839844 19.404335021972656 9.588951110839844 C 19.870586395263672 9.588951110839844 20.24852752685547 9.211105346679688 20.24852752685547 8.744873046875 C 20.24852752685547 8.744873046875 20.24852752685547 5.3680267333984375 20.24852752685547 5.3680267333984375 Z"/></g></svg>