<svg version="1.1" xmlns="http://www.w3.org/2000/svg" xmlns:xlink="http://www.w3.org/1999/xlink" width="28" height="34"><defs/><g><path fill="rgb(135,151,160)" stroke="none" paint-order="stroke fill markers" fill-rule="evenodd" d=" M 21.074356079101562 7.6538543701171875 C 21.074356079101562 7.6538543701171875 21.074356079101562 32.00287628173828 21.074356079101562 32.00287628173828 C 21.074356079101562 32.00287628173828 17.121471405029297 32.00287628173828 17.121471405029297 32.00287628173828 C 17.121471405029297 32.00287628173828 17.121471405029297 7.6538543701171875 17.121471405029297 7.6538543701171875 C 17.121471405029297 7.6538543701171875 13.85198974609375 7.6538543701171875 13.85198974609375 7.6538543701171875 C 13.85198974609375 7.6538543701171875 13.85198974609375 3.0577545166015625 13.85198974609375 3.0577545166015625 C 13.85198974609375 3.0577545166015625 17.121471405029297 3.0577545166015625 17.121471405029297 3.0577545166015625 C 17.121471405029297 3.0577545166015625 17.121471405029297 1.7367630004882812 17.121471405029297 1.7367630004882812 C 17.121471405029297 1.7367630004882812 21.074356079101562 1.7367630004882812 21.074356079101562 1.7367630004882812 C 21.074356079101562 1.7367630004882812 21.074356079101562 3.0577545166015625 21.074356079101562 3.0577545166015625 C 21.074356079101562 3.0577545166015625 24.364246368408203 3.0577545166015625 24.364246368408203 3.0577545166015625 C 24.364246368408203 3.0577545166015625 26.992286682128906 7.6538543701171875 26.992286682128906 7.6538543701171875 C 26.992286682128906 7.6538543701171875 21.074356079101562 7.6538543701171875 21.074356079101562 7.6538543701171875 Z M 10.28000259399414 31.999671936035156 C 10.28000259399414 31.999671936035156 9.888328552246094 31.999671936035156 9.888328552246094 31.999671936035156 C 9.888328552246094 31.999671936035156 9.894622802734375 28.052452087402344 9.894622802734375 28.052452087402344 C 9.894622802734375 28.052452087402344 8.56930160522461 26.72852325439453 8.56930160522461 26.72852325439453 C 8.56930160522461 26.72852325439453 6.615985870361328 26.72852325439453 6.615985870361328 26.72852325439453 C 6.615985870361328 26.72852325439453 5.289329528808594 28.052452087402344 5.289329528808594 28.052452087402344 C 5.289329528808594 28.052452087402344 5.292476654052734 31.999671936035156 5.292476654052734 31.999671936035156 C 5.292476654052734 31.999671936035156 4.899372100830078 31.999671936035156 4.899372100830078 31.999671936035156 C 3.1698837280273438 31.1048583984375 1.9953384399414062 29.378517150878906 1.9953384399414062 27.390220642089844 C 1.9953384399414062 25.25666046142578 3.3469810485839844 23.42377471923828 5.286277770996094 22.597320556640625 C 5.286277770996094 22.597320556640625 5.286277770996094 4.362724304199219 5.286277770996094 4.362724304199219 C 5.286277770996094 4.362724304199219 5.293525695800781 4.362724304199219 5.293525695800781 4.362724304199219 C 5.293525695800781 4.362724304199219 5.293525695800781 3.0716400146484375 5.293525695800781 3.0716400146484375 C 5.293525695800781 2.3365097045898438 5.890716552734375 1.7407684326171875 6.627143859863281 1.7407684326171875 C 6.627143859863281 1.7407684326171875 8.561004638671875 1.7407684326171875 8.561004638671875 1.7407684326171875 C 9.297527313232422 1.7407684326171875 9.894622802734375 2.3365097045898438 9.894622802734375 3.0716400146484375 C 9.894622802734375 3.0716400146484375 9.894622802734375 5.866363525390625 9.894622802734375 5.866363525390625 C 9.894622802734375 5.877845764160156 9.891571044921875 5.888526916503906 9.891189575195312 5.9000091552734375 C 9.891189575195312 9.084060668945312 9.891189575195312 16.638572692871094 9.891189575195312 22.59625244140625 C 11.83163070678711 23.422439575195312 13.184036254882812 25.256126403808594 13.184036254882812 27.390220642089844 C 13.184036254882812 29.378517150878906 12.009490966796875 31.1048583984375 10.28000259399414 31.999671936035156 Z M 7.594169616699219 3.0518798828125 C 7.052959442138672 3.0518798828125 6.614173889160156 3.4938125610351562 6.614173889160156 4.039085388183594 C 6.614173889160156 4.5840911865234375 7.052959442138672 5.026023864746094 7.594169616699219 5.026023864746094 C 8.135475158691406 5.026023864746094 8.574260711669922 4.5840911865234375 8.574260711669922 4.039085388183594 C 8.574260711669922 3.4938125610351562 8.135475158691406 3.0518798828125 7.594169616699219 3.0518798828125 Z"/></g></svg>