<svg version="1.1" xmlns="http://www.w3.org/2000/svg" xmlns:xlink="http://www.w3.org/1999/xlink" width="38" height="12"><defs/><g><path fill="rgb(135,151,160)" stroke="none" paint-order="stroke fill markers" fill-rule="evenodd" d=" M 36.36085510253906 3.82232666015625 C 36.077327728271484 2.2393798828125 35.14883041381836 2.2887802124023438 35.4911994934082 3.3349990844726562 C 35.83757400512695 4.3927001953125 35.300941467285156 5.750541687011719 33.58652114868164 5.877113342285156 C 32.543678283691406 5.951881408691406 31.18326187133789 5.513420104980469 29.818172454833984 4.741172790527344 C 27.504653930664062 3.4356689453125 26.08530044555664 1.080474853515625 22.92215347290039 1.3643264770507812 C 20.422382354736328 1.585693359375 19.55615997314453 2.9702377319335938 19.363994598388672 4.218330383300781 C 19.172401428222656 2.9702377319335938 18.307514190673828 1.585693359375 15.806503295898438 1.3643264770507812 C 12.644023895263672 1.082611083984375 10.846061706542969 3.3857345581054688 8.533306121826172 4.6917724609375 C 7.1669769287109375 5.46295166015625 5.807323455810547 5.901145935058594 4.764003753662109 5.825042724609375 C 3.049488067626953 5.701141357421875 2.5133323669433594 4.3441009521484375 2.8603744506835938 3.2842636108398438 C 3.20159912109375 2.2380447387695312 2.2727203369140625 2.19024658203125 1.9903373718261719 3.7739944458007812 C 1.7671775817871094 9.659843444824219 9.677715301513672 9.684677124023438 8.986492156982422 9.791488647460938 C 12.489242553710938 9.981613159179688 18.533248901367188 9.381866455078125 19.3316650390625 5.577239990234375 C 19.34539794921875 5.521697998046875 19.355030059814453 5.460014343261719 19.363994598388672 5.399932861328125 C 19.37419891357422 5.460014343261719 19.384403228759766 5.521697998046875 19.396133422851562 5.577239990234375 C 19.913692474365234 8.04351806640625 24.45232391357422 10.317001342773438 28.893108367919922 9.947433471679688 C 28.372020721435547 9.847030639648438 36.63656234741211 9.398155212402344 36.36085510253906 3.82232666015625 Z"/></g></svg>