<svg version="1.1" xmlns="http://www.w3.org/2000/svg" xmlns:xlink="http://www.w3.org/1999/xlink" width="66" height="42"><defs/><g><path fill="rgb(225,245,255)" stroke="none" paint-order="stroke fill markers" fill-rule="evenodd" d=" M 64.99985122680664 17.706146240234375 C 64.31196594238281 16.271934509277344 60.709651947021484 15.254554748535156 59.61321258544922 14.974441528320312 C 58.51314926147461 11.438713073730469 56.297000885009766 7.815132141113281 53.52075958251953 5.5771636962890625 C 52.817901611328125 5.010261535644531 52.09587478637695 4.568328857421875 51.362403869628906 4.2377471923828125 C 53.061946868896484 3.6270523071289062 54.71542739868164 3.4564208984375 54.71542739868164 3.4564208984375 C 50.72067642211914 1.99951171875 46.87107467651367 3.0342483520507812 44.623931884765625 3.963775634765625 C 41.724761962890625 4.886360168457031 39.031681060791016 6.9774627685546875 37.049278259277344 9.443473815917969 C 35.943302154541016 10.819206237792969 34.97646713256836 12.289199829101562 34.074100494384766 13.801383972167969 C 32.2874870300293 12.617111206054688 18.285736083984375 3.5424041748046875 12.445625305175781 6.315765380859375 C 12.445625305175781 6.315765380859375 12.447437286376953 6.437530517578125 12.475093841552734 6.6677093505859375 C 13.81729507446289 7.4730682373046875 16.16686248779297 9.086189270019531 16.915782928466797 10.883293151855469 C 16.915782928466797 10.883293151855469 14.733108520507812 10.635490417480469 13.838085174560547 10.850715637207031 C 13.888534545898438 10.953788757324219 13.940605163574219 11.058197021484375 13.994583129882812 11.164474487304688 C 15.298160552978516 12.104415893554688 19.900402069091797 15.478057861328125 21.805938720703125 17.5811767578125 C 21.805938720703125 17.5811767578125 19.856056213378906 17.37743377685547 18.888362884521484 17.829246520996094 C 18.941673278808594 17.884521484375 18.995269775390625 17.940330505371094 19.04953384399414 17.99640655517578 C 20.10668182373047 18.461837768554688 24.128803253173828 20.439453125 27.50147247314453 24.88147735595703 C 25.620731353759766 27.390213012695312 23.310455322265625 29.68852996826172 20.58456802368164 30.917396545410156 C 14.957889556884766 33.45390319824219 7.647785186767578 32.22450256347656 1.9998397827148438 30.258636474609375 C 4.797443389892578 32.125701904296875 7.737430572509766 33.77967834472656 10.802444458007812 35.160484313964844 C 20.23199462890625 39.40544128417969 31.02310562133789 40.99933624267578 41.10573196411133 38.29059600830078 C 48.15910720825195 36.396026611328125 55.47016525268555 32.19245910644531 58.80592727661133 25.37921905517578 C 59.81672668457031 23.31562042236328 60.371192932128906 21.035728454589844 60.299285888671875 18.75049591064453 C 62.54776382446289 17.81402587890625 64.99985122680664 17.706146240234375 64.99985122680664 17.706146240234375 Z M 50.46881103515625 15.086326599121094 C 48.87445831298828 15.086326599121094 47.58184814453125 13.786697387695312 47.58184814453125 12.183189392089844 C 47.58184814453125 10.58074951171875 48.87445831298828 9.281654357910156 50.46881103515625 9.281654357910156 C 52.0638313293457 9.281654357910156 53.35625076293945 10.58074951171875 53.35625076293945 12.183189392089844 C 53.35625076293945 13.786697387695312 52.0638313293457 15.086326599121094 50.46881103515625 15.086326599121094 Z"/></g></svg>