<svg version="1.1" xmlns="http://www.w3.org/2000/svg" xmlns:xlink="http://www.w3.org/1999/xlink" width="33" height="33"><defs/><g><path fill="rgb(135,151,160)" stroke="none" paint-order="stroke fill markers" fill-rule="evenodd" d=" M 16.99980926513672 31.999740600585938 C 8.715621948242188 31.999740600585938 1.999847412109375 25.283966064453125 1.999847412109375 16.99993133544922 C 1.999847412109375 8.715629577636719 8.715621948242188 1.9998550415039062 16.99980926513672 1.9998550415039062 C 25.28409194946289 1.9998550415039062 31.999866485595703 8.715629577636719 31.999866485595703 16.99993133544922 C 31.999866485595703 25.283966064453125 25.28409194946289 31.999740600585938 16.99980926513672 31.999740600585938 Z M 24.42950439453125 29.25708770751953 C 26.14773941040039 28.213272094726562 27.63213348388672 26.827659606933594 28.777687072753906 25.18169403076172 C 28.777687072753906 25.18169403076172 24.997894287109375 21.401901245117188 24.997894287109375 21.401901245117188 C 24.0159912109375 23.18218231201172 22.458831787109375 24.60010528564453 20.574848175048828 25.40252685546875 C 20.574848175048828 25.40252685546875 24.42950439453125 29.25708770751953 24.42950439453125 29.25708770751953 Z M 9.129325866699219 28.9892578125 C 9.129325866699219 28.9892578125 12.921516418457031 25.160064697265625 12.921516418457031 25.160064697265625 C 11.163703918457031 24.27967071533203 9.732810974121094 22.852401733398438 8.848564147949219 21.096954345703125 C 8.848564147949219 21.096954345703125 5.028049468994141 24.899444580078125 5.028049468994141 24.899444580078125 C 6.103507995605469 26.525917053222656 7.500354766845703 27.91767120361328 9.129325866699219 28.9892578125 Z M 8.817951202392578 5.221824645996094 C 7.172100067138672 6.367378234863281 5.786411285400391 7.852058410644531 4.742519378662109 9.570121765136719 C 4.742519378662109 9.570121765136719 8.597175598144531 13.4246826171875 8.597175598144531 13.4246826171875 C 9.39969253540039 11.541061401367188 10.817520141601562 9.983749389648438 12.59783935546875 9.001617431640625 C 12.59783935546875 9.001617431640625 8.817951202392578 5.221824645996094 8.817951202392578 5.221824645996094 Z M 8.521549224853516 16.99993133544922 C 8.521549224853516 21.682281494140625 12.317459106445312 25.47809600830078 16.99980926513672 25.47809600830078 C 21.682254791259766 25.47809600830078 25.478069305419922 21.682281494140625 25.478069305419922 16.99993133544922 C 25.478069305419922 12.317314147949219 21.682254791259766 8.521499633789062 16.99980926513672 8.521499633789062 C 12.317459106445312 8.521499633789062 8.521549224853516 12.317314147949219 8.521549224853516 16.99993133544922 Z M 24.89642333984375 5.026092529296875 C 24.89642333984375 5.026092529296875 21.065799713134766 8.833389282226562 21.065799713134766 8.833389282226562 C 22.84125518798828 9.719390869140625 24.283973693847656 11.162948608398438 25.168697357177734 12.939224243164062 C 25.168697357177734 12.939224243164062 28.99045181274414 9.131393432617188 28.99045181274414 9.131393432617188 C 27.918045043945312 7.5003814697265625 26.52472686767578 6.1022186279296875 24.89642333984375 5.026092529296875 Z"/></g></svg>