<svg version="1.1" xmlns="http://www.w3.org/2000/svg" xmlns:xlink="http://www.w3.org/1999/xlink" width="33" height="31"><defs/><g><path fill="rgb(135,151,160)" stroke="none" paint-order="stroke fill markers" fill-rule="evenodd" d=" M 30.162349700927734 6.930206298828125 C 29.87481689453125 7.423408508300781 29.56515884399414 7.905662536621094 29.242435455322266 8.37109375 C 28.399864196777344 7.765739440917969 27.573123931884766 7.033546447753906 26.805702209472656 6.1702423095703125 C 26.039520263671875 5.307472229003906 25.407711029052734 4.398773193359375 24.90350341796875 3.4892730712890625 C 25.401988983154297 3.218505859375 25.911155700683594 2.9648284912109375 26.433387756347656 2.7311782836914062 C 28.234020233154297 1.9348983764648438 30.155101776123047 1.4120559692382812 31.996646881103516 1.5183334350585938 C 31.89183807373047 3.3661727905273438 31.159225463867188 5.222557067871094 30.162349700927734 6.930206298828125 Z M 28.449359893798828 8.919036865234375 C 25.986114501953125 12.474525451660156 22.76717758178711 15.087135314941406 22.76717758178711 15.087135314941406 C 22.76717758178711 15.087135314941406 19.750038146972656 16.860740661621094 19.750038146972656 16.860740661621094 C 19.750038146972656 16.860740661621094 19.780364990234375 16.891983032226562 19.780364990234375 16.891983032226562 C 19.780364990234375 16.891983032226562 10.172954559326172 22.533767700195312 10.172954559326172 22.533767700195312 C 10.172954559326172 22.533767700195312 9.592357635498047 21.884620666503906 9.592357635498047 21.884620666503906 C 9.592357635498047 21.884620666503906 9.205833435058594 21.450164794921875 9.205833435058594 21.450164794921875 C 9.205833435058594 21.450164794921875 8.626667022705078 20.798614501953125 8.626667022705078 20.798614501953125 C 8.626667022705078 20.798614501953125 15.106597900390625 12.11163330078125 15.106597900390625 12.11163330078125 C 15.106597900390625 12.11163330078125 15.072837829589844 12.076919555664062 15.072837829589844 12.076919555664062 C 15.072837829589844 12.076919555664062 17.361560821533203 9.0076904296875 17.361560821533203 9.0076904296875 C 17.361560821533203 9.0076904296875 20.315662384033203 6.0933380126953125 24.111858367919922 4.037750244140625 C 24.61377716064453 4.948585510253906 25.247779846191406 5.857551574707031 26.012054443359375 6.718986511230469 C 26.779953002929688 7.5812225341796875 27.60593032836914 8.313949584960938 28.449359893798828 8.919036865234375 Z M 7.163063049316406 16.95099639892578 C 7.163063049316406 16.95099639892578 4.4662628173828125 17.41509246826172 4.4662628173828125 17.41509246826172 C 4.4662628173828125 17.41509246826172 1.0028038024902344 19.348648071289062 1.0028038024902344 19.348648071289062 C 1.0028038024902344 19.348648071289062 9.294143676757812 11.918304443359375 9.294143676757812 11.918304443359375 C 9.294143676757812 11.918304443359375 13.470569610595703 12.465179443359375 13.470569610595703 12.465179443359375 C 13.470569610595703 12.465179443359375 8.89865493774414 18.906982421875 8.89865493774414 18.906982421875 C 8.89865493774414 18.906982421875 7.163063049316406 16.95099639892578 7.163063049316406 16.95099639892578 Z M 5.8159027099609375 21.365249633789062 C 6.536212921142578 20.826385498046875 10.327259063720703 21.18340301513672 9.656539916992188 24.708984375 C 9.218421936035156 26.73706817626953 1.0518226623535156 29.213226318359375 1.0518226623535156 29.213226318359375 C 1.0518226623535156 29.213226318359375 3.9014015197753906 22.793853759765625 5.8159027099609375 21.365249633789062 Z M 7.932392120361328 24.239547729492188 C 8.188739776611328 22.894790649414062 6.743160247802734 22.75860595703125 6.4697418212890625 22.964752197265625 C 5.742851257324219 23.50922393798828 4.655948638916016 25.95440673828125 4.655948638916016 25.95440673828125 C 4.655948638916016 25.95440673828125 7.767215728759766 25.012596130371094 7.932392120361328 24.239547729492188 Z M 14.361873626708984 24.116714477539062 C 14.361873626708984 24.116714477539062 12.62322998046875 22.16179656982422 12.62322998046875 22.16179656982422 C 12.62322998046875 22.16179656982422 19.514575958251953 18.327796936035156 19.514575958251953 18.327796936035156 C 19.514575958251953 18.327796936035156 19.582096099853516 22.555931091308594 19.582096099853516 22.555931091308594 C 19.582096099853516 22.555931091308594 11.290851593017578 29.99188232421875 11.290851593017578 29.99188232421875 C 11.290851593017578 29.99188232421875 13.596263885498047 26.753089904785156 13.596263885498047 26.753089904785156 C 13.596263885498047 26.753089904785156 14.361873626708984 24.116714477539062 14.361873626708984 24.116714477539062 Z"/></g></svg>