<svg version="1.1" xmlns="http://www.w3.org/2000/svg" xmlns:xlink="http://www.w3.org/1999/xlink" width="19" height="19"><defs/><g><path fill="#93a6b0" stroke="none" paint-order="stroke fill markers" fill-rule="evenodd" d=" M 17.999732971191406 13.553031921386719 C 17.999732971191406 16.009429931640625 16.03668975830078 17.99852752685547 13.613594055175781 17.99852752685547 C 12.764537811279297 17.99852752685547 11.970699310302734 17.752593994140625 11.298263549804688 17.32988739013672 C 10.863197326660156 17.40892791748047 10.417831420898438 17.455657958984375 9.961593627929688 17.455657958984375 C 5.903423309326172 17.455657958984375 2.6142005920410156 14.132217407226562 2.6142005920410156 10.035194396972656 C 2.6142005920410156 9.643463134765625 2.6447181701660156 9.250129699707031 2.7063255310058594 8.86907958984375 C 2.2609596252441406 8.171867370605469 1.9998435974121094 7.34381103515625 1.9998435974121094 6.447662353515625 C 1.9998435974121094 3.9896621704101562 3.960216522216797 1.99896240234375 6.383598327636719 1.99896240234375 C 7.268226623535156 1.99896240234375 8.086860656738281 2.264923095703125 8.776748657226562 2.7228775024414062 C 9.161270141601562 2.65692138671875 9.55771255493164 2.623809814453125 9.961593627929688 2.623809814453125 C 14.021099090576172 2.623809814453125 17.305171966552734 5.9429779052734375 17.305171966552734 10.035194396972656 C 17.305171966552734 10.37939453125 17.280376434326172 10.715049743652344 17.236221313476562 11.045631408691406 C 17.719257354736328 11.757530212402344 17.999732971191406 12.622970581054688 17.999732971191406 13.553031921386719 Z M 5.469692230224609 7.779869079589844 C 5.266845703125 10.011695861816406 7.874763488769531 11.146034240722656 9.939468383789062 11.456321716308594 C 11.386478424072266 11.673149108886719 13.358867645263672 12.382644653320312 12.172115325927734 13.757575988769531 C 11.086738586425781 15.020622253417969 9.024227142333984 14.239028930664062 8.483779907226562 13.896965026855469 C 7.9405670166015625 13.551429748535156 7.331645965576172 12.315620422363281 6.316459655761719 12.382644653320312 C 5.300987243652344 12.4515380859375 4.800022125244141 13.80804443359375 6.0446624755859375 14.996589660644531 C 7.162845611572266 16.05883026123047 8.380783081054688 16.644424438476562 10.988224029541016 16.505569458007812 C 13.596046447753906 16.369384765625 15.9327392578125 14.033416748046875 15.01730728149414 11.833900451660156 C 14.105785369873047 9.634117126464844 11.565959930419922 9.393257141113281 9.192550659179688 8.810333251953125 C 6.825244903564453 8.225540161132812 8.122718811035156 6.166481018066406 10.041606903076172 6.19879150390625 C 11.903560638427734 6.2281646728515625 12.850177764892578 8.225540161132812 13.696372985839844 8.122200012207031 C 14.54275894165039 8.019660949707031 15.26583480834961 6.730712890625 13.93374252319336 5.580085754394531 C 12.783897399902344 4.582466125488281 11.325920104980469 4.033988952636719 9.093177795410156 4.240135192871094 C 7.339466094970703 4.400352478027344 5.672920227050781 5.5456390380859375 5.469692230224609 7.779869079589844 Z"/></g></svg>