<svg version="1.1" xmlns="http://www.w3.org/2000/svg" xmlns:xlink="http://www.w3.org/1999/xlink" width="19" height="16"><defs/><g><path fill="#93a6b0" stroke="none" paint-order="stroke fill markers" fill-rule="evenodd" d=" M 16.362186431884766 5.236732482910156 C 16.36895751953125 5.376922607421875 16.37191390991211 5.517913818359375 16.37191390991211 5.6605072021484375 C 16.37191390991211 9.997589111328125 13.07010269165039 14.998771667480469 7.032009124755859 14.998771667480469 C 5.177494049072266 14.998771667480469 3.4529647827148438 14.455902099609375 1.9998512268066406 13.524505615234375 C 2.2575340270996094 13.553611755371094 2.5183639526367188 13.569366455078125 2.783008575439453 13.569366455078125 C 4.3221435546875 13.569366455078125 5.736156463623047 13.046257019042969 6.859203338623047 12.165061950683594 C 5.423542022705078 12.138092041015625 4.210659027099609 11.18853759765625 3.7938079833984375 9.886505126953125 C 3.9938888549804688 9.923622131347656 4.199024200439453 9.944984436035156 4.410930633544922 9.944984436035156 C 4.710670471191406 9.944984436035156 5.0007781982421875 9.904129028320312 5.275245666503906 9.829627990722656 C 3.7752113342285156 9.526817321777344 2.642436981201172 8.201019287109375 2.642436981201172 6.611930847167969 C 2.642436981201172 6.597511291503906 2.642436981201172 6.583892822265625 2.642436981201172 6.5705413818359375 C 3.0856094360351562 6.8162078857421875 3.5916290283203125 6.96307373046875 4.129692077636719 6.980430603027344 C 3.2488784790039062 6.392967224121094 2.6697120666503906 5.3870697021484375 2.6697120666503906 4.2484588623046875 C 2.6697120666503906 3.6468429565429688 2.8317413330078125 3.082611083984375 3.114124298095703 2.5984878540039062 C 4.7322235107421875 4.584381103515625 7.152172088623047 5.89068603515625 9.879680633544922 6.027671813964844 C 9.823986053466797 5.7876129150390625 9.794708251953125 5.537406921386719 9.794708251953125 5.27972412109375 C 9.794708251953125 3.4673995971679688 11.264511108398438 1.9987411499023438 13.077922821044922 1.9987411499023438 C 14.021297454833984 1.9987411499023438 14.874835968017578 2.396881103515625 15.47336196899414 3.0337448120117188 C 16.220470428466797 2.8874130249023438 16.923614501953125 2.6145095825195312 17.558380126953125 2.2371978759765625 C 17.312332153320312 3.0049057006835938 16.792865753173828 3.6468429565429688 16.115089416503906 4.053260803222656 C 16.779132843017578 3.9750213623046875 17.411895751953125 3.7974472045898438 17.999835968017578 3.5378952026367188 C 17.56047821044922 4.195587158203125 17.00372314453125 4.773704528808594 16.362186431884766 5.236732482910156 Z"/></g></svg>