<svg version="1.1" xmlns="http://www.w3.org/2000/svg" xmlns:xlink="http://www.w3.org/1999/xlink" width="17" height="19"><defs/><g><path fill="rgb(0,143,213)" stroke="none" paint-order="stroke fill markers" fill-rule="evenodd" d=" M 1.0008125305175781 17.998207092285156 C 1.1510162353515625 14.393852233886719 3.5507469177246094 11.415145874023438 6.737926483154297 10.619667053222656 C 6.737926483154297 10.619667053222656 8.43966293334961 13.4718017578125 8.43966293334961 13.4718017578125 C 8.43966293334961 13.4718017578125 10.141494750976562 10.619667053222656 10.141494750976562 10.619667053222656 C 13.32876968383789 11.415145874023438 15.72878646850586 14.393852233886719 15.878894805908203 17.998207092285156 C 15.878894805908203 17.998207092285156 1.0008125305175781 17.998207092285156 1.0008125305175781 17.998207092285156 Z M 8.378532409667969 9.335258483886719 C 6.352260589599609 9.335258483886719 4.709842681884766 7.6927642822265625 4.709842681884766 5.6665496826171875 C 4.709842681884766 3.6403350830078125 6.352260589599609 1.9975738525390625 8.378532409667969 1.9975738525390625 C 10.404613494873047 1.9975738525390625 12.04703140258789 3.6403350830078125 12.04703140258789 5.6665496826171875 C 12.04703140258789 7.6927642822265625 10.404613494873047 9.335258483886719 8.378532409667969 9.335258483886719 Z"/></g></svg>