<svg version="1.1" xmlns="http://www.w3.org/2000/svg" xmlns:xlink="http://www.w3.org/1999/xlink" width="19" height="18"><defs/><g><path fill="#93a6b0" stroke="none" paint-order="stroke fill markers" fill-rule="evenodd" d=" M 1.9998054504394531 7.048744201660156 C 1.9998054504394531 7.048744201660156 2.6169281005859375 7.834075927734375 2.6169281005859375 7.834075927734375 C 2.6169281005859375 7.834075927734375 3.893230438232422 6.8604888916015625 4.318569183349609 7.347282409667969 C 4.7432403564453125 7.834075927734375 6.365535736083984 13.707908630371094 6.907604217529297 14.792045593261719 C 7.380817413330078 15.742668151855469 8.68429946899414 16.99877166748047 10.115859985351562 16.10102081298828 C 11.544940948486328 15.204071044921875 16.29814910888672 11.275810241699219 17.14987564086914 6.63671875 C 17.99979019165039 1.9986953735351562 11.428592681884766 2.9706802368164062 10.733745574951172 7.0110931396484375 C 12.473533630371094 6.0001220703125 13.402030944824219 7.421783447265625 12.511585235595703 9.031166076660156 C 11.621807098388672 10.639480590820312 10.810611724853516 11.688102722167969 10.385177612304688 11.688102722167969 C 9.96146011352539 11.688102722167969 9.635112762451172 10.612510681152344 9.149311065673828 8.731025695800781 C 8.646247863769531 6.7867889404296875 8.648918151855469 3.2836380004882812 6.558845520019531 3.681243896484375 C 4.588649749755859 4.055885314941406 1.9998054504394531 7.048744201660156 1.9998054504394531 7.048744201660156 Z"/></g></svg>