<svg version="1.1" xmlns="http://www.w3.org/2000/svg" xmlns:xlink="http://www.w3.org/1999/xlink" width="26" height="18"><defs/><g><path fill="rgb(138,152,160)" stroke="none" paint-order="stroke fill markers" fill-rule="evenodd" d=" M 22.640869140625 15.592994689941406 C 22.640869140625 15.592994689941406 17.900821685791016 10.85296630859375 17.900821685791016 10.85296630859375 C 17.900821685791016 10.85296630859375 17.900821685791016 14.581489562988281 17.900821685791016 14.581489562988281 C 17.900821685791016 15.355072021484375 17.273971557617188 15.981521606445312 16.50082778930664 15.981521606445312 C 16.50082778930664 15.981521606445312 3.2007904052734375 15.981521606445312 3.2007904052734375 15.981521606445312 C 2.4276466369628906 15.981521606445312 1.8007965087890625 15.355072021484375 1.8007965087890625 14.581489562988281 C 1.8007965087890625 14.581489562988281 1.8007965087890625 3.3817672729492188 1.8007965087890625 3.3817672729492188 C 1.8007965087890625 2.608184814453125 2.4276466369628906 1.9817352294921875 3.2007904052734375 1.9817352294921875 C 3.2007904052734375 1.9817352294921875 16.50082778930664 1.9817352294921875 16.50082778930664 1.9817352294921875 C 17.273971557617188 1.9817352294921875 17.900821685791016 2.608184814453125 17.900821685791016 3.3817672729492188 C 17.900821685791016 3.3817672729492188 17.900821685791016 7.11456298828125 17.900821685791016 7.11456298828125 C 17.900821685791016 7.11456298828125 22.640869140625 2.3745346069335938 22.640869140625 2.3745346069335938 C 23.55344009399414 1.4618301391601562 24.205753326416016 2.287750244140625 24.205753326416016 3.2004547119140625 C 24.205753326416016 3.2004547119140625 24.205753326416016 14.766807556152344 24.205753326416016 14.766807556152344 C 24.205753326416016 15.678977966308594 23.467132568359375 16.418914794921875 22.640869140625 15.592994689941406 Z M 16.50082778930664 4.081916809082031 C 16.50082778930664 3.6949920654296875 16.187355041503906 3.3817672729492188 15.800830841064453 3.3817672729492188 C 15.800830841064453 3.3817672729492188 3.9008827209472656 3.3817672729492188 3.9008827209472656 3.3817672729492188 C 3.514263153076172 3.3817672729492188 3.2007904052734375 3.6949920654296875 3.2007904052734375 4.081916809082031 C 3.2007904052734375 4.081916809082031 3.2007904052734375 13.881607055664062 3.2007904052734375 13.881607055664062 C 3.2007904052734375 14.268264770507812 3.514263153076172 14.581489562988281 3.9008827209472656 14.581489562988281 C 3.9008827209472656 14.581489562988281 15.800830841064453 14.581489562988281 15.800830841064453 14.581489562988281 C 16.187355041503906 14.581489562988281 16.50082778930664 14.268264770507812 16.50082778930664 13.881607055664062 C 16.50082778930664 13.881607055664062 16.50082778930664 4.081916809082031 16.50082778930664 4.081916809082031 Z M 22.79059600830078 5.660057067871094 C 22.79059600830078 5.13641357421875 22.322532653808594 4.6627044677734375 21.798965454101562 5.1860809326171875 C 21.798965454101562 5.1860809326171875 18.007251739501953 8.977890014648438 18.007251739501953 8.977890014648438 C 18.007251739501953 8.977890014648438 21.798965454101562 12.769432067871094 21.798965454101562 12.769432067871094 C 22.27294158935547 13.243675231933594 22.79059600830078 12.819366455078125 22.79059600830078 12.295722961425781 C 22.79059600830078 12.295722961425781 22.79059600830078 5.660057067871094 22.79059600830078 5.660057067871094 Z M 13.000747680664062 11.781692504882812 C 13.000747680664062 11.781692504882812 6.700870513916016 11.781692504882812 6.700870513916016 11.781692504882812 C 6.314250946044922 11.781692504882812 6.000873565673828 11.46820068359375 6.000873565673828 11.082077026367188 C 6.000873565673828 11.082077026367188 6.000873565673828 6.8817138671875 6.000873565673828 6.8817138671875 C 6.000873565673828 6.49505615234375 6.314250946044922 6.1815643310546875 6.700870513916016 6.1815643310546875 C 6.700870513916016 6.1815643310546875 13.000747680664062 6.1815643310546875 13.000747680664062 6.1815643310546875 C 13.387462615966797 6.1815643310546875 13.70074462890625 6.49505615234375 13.70074462890625 6.8817138671875 C 13.70074462890625 6.8817138671875 13.70074462890625 11.082077026367188 13.70074462890625 11.082077026367188 C 13.70074462890625 11.46820068359375 13.387462615966797 11.781692504882812 13.000747680664062 11.781692504882812 Z M 13.001319885253906 7.406425476074219 C 13.001319885253906 7.116432189941406 12.766239166259766 6.8811798095703125 12.476226806640625 6.8811798095703125 C 12.476226806640625 6.8811798095703125 7.225391387939453 6.8811798095703125 7.225391387939453 6.8811798095703125 C 6.935474395751953 6.8811798095703125 6.7003936767578125 7.116432189941406 6.7003936767578125 7.406425476074219 C 6.7003936767578125 7.406425476074219 6.7003936767578125 10.557098388671875 6.7003936767578125 10.557098388671875 C 6.7003936767578125 10.846824645996094 6.935474395751953 11.082077026367188 7.225391387939453 11.082077026367188 C 7.225391387939453 11.082077026367188 12.476226806640625 11.082077026367188 12.476226806640625 11.082077026367188 C 12.766239166259766 11.082077026367188 13.001319885253906 10.846824645996094 13.001319885253906 10.557098388671875 C 13.001319885253906 10.557098388671875 13.001319885253906 7.406425476074219 13.001319885253906 7.406425476074219 Z"/></g></svg>