<svg version="1.1" xmlns="http://www.w3.org/2000/svg" xmlns:xlink="http://www.w3.org/1999/xlink" width="16" height="15"><defs/><g><path fill="rgb(252,252,252)" stroke="none" paint-order="stroke fill markers" fill-rule="evenodd" d=" M 7.5099334716796875 1.0004043579101562 C 3.914867401123047 1.0004043579101562 1.0004386901855469 3.9083480834960938 1.0004386901855469 7.497215270996094 C 1.0004386901855469 11.08795166015625 3.914867401123047 13.996696472167969 7.5099334716796875 13.996696472167969 C 11.102615356445312 13.996696472167969 14.015708923339844 11.08795166015625 14.015708923339844 7.497215270996094 C 14.015708923339844 3.9083480834960938 11.102615356445312 1.0004043579101562 7.5099334716796875 1.0004043579101562 Z M 11.052928924560547 9.778709411621094 C 11.052928924560547 9.778709411621094 9.723030090332031 11.10504150390625 9.723030090332031 11.10504150390625 C 9.723030090332031 11.10504150390625 7.585941314697266 8.969078063964844 7.585941314697266 8.969078063964844 C 7.585941314697266 8.969078063964844 5.4488525390625 11.10504150390625 5.4488525390625 11.10504150390625 C 5.4488525390625 11.10504150390625 4.121147155761719 9.778709411621094 4.121147155761719 9.778709411621094 C 4.121147155761719 9.778709411621094 6.258522033691406 7.641944885253906 6.258522033691406 7.641944885253906 C 6.258522033691406 7.641944885253906 4.121147155761719 5.50384521484375 4.121147155761719 5.50384521484375 C 4.121147155761719 5.50384521484375 5.4488525390625 4.174041748046875 5.4488525390625 4.174041748046875 C 5.4488525390625 4.174041748046875 7.587371826171875 6.312408447265625 7.587371826171875 6.312408447265625 C 7.587371826171875 6.312408447265625 9.723030090332031 4.174041748046875 9.723030090332031 4.174041748046875 C 9.723030090332031 4.174041748046875 11.052928924560547 5.50384521484375 11.052928924560547 5.50384521484375 C 11.052928924560547 5.50384521484375 8.913742065429688 7.639274597167969 8.913742065429688 7.639274597167969 C 8.913742065429688 7.639274597167969 11.052928924560547 9.778709411621094 11.052928924560547 9.778709411621094 Z"/></g></svg>